<svg width="240" height="240" viewBox="0 0 240 240" fill="none" xmlns="http://www.w3.org/2000/svg">
<path fill-rule="evenodd" clip-rule="evenodd" d="M20 20C20 8.9543 11.0457 0 0 0H15H40H55C43.9543 0 35 8.9543 35 20C35 13.684 32.0723 8.05187 27.5 4.38657C22.9277 8.05187 20 13.684 20 20ZM20 60C20 48.9543 11.0457 40 0 40C11.0457 40 20 31.0457 20 20C20 26.316 22.9277 31.9481 27.5 35.6134C32.0723 31.9481 35 26.316 35 20C35 31.0457 43.9543 40 55 40H40C28.9543 40 20 48.9543 20 60ZM40 100C40 88.9543 48.9543 80 60 80H40C28.9543 80 20 71.0457 20 60C20 71.0457 11.0457 80 0 80C11.0457 80 20 88.9543 20 100C20 111.046 11.0457 120 0 120C11.0457 120 20 128.954 20 140C20 151.046 11.0457 160 0 160C11.0457 160 20 168.954 20 180C20 191.046 11.0457 200 0 200C11.0457 200 20 208.954 20 220C20 231.046 11.0457 240 0 240H40C28.9543 240 20 231.046 20 220C20 208.954 28.9543 200 40 200C28.9543 200 20 191.046 20 180C20 168.954 28.9543 160 40 160C28.9543 160 20 151.046 20 140C20 128.954 28.9543 120 40 120H60C48.9543 120 40 111.046 40 100ZM40 100C40 92.5972 35.978 86.1337 30 82.6756C24.022 86.1337 20 92.5972 20 100C20 107.403 24.022 113.866 30 117.324C35.978 113.866 40 107.403 40 100ZM200 40C211.046 40 220 48.9543 220 60C220 71.0457 211.046 80 200 80H180C191.046 80 200 88.9543 200 100C200 111.046 191.046 120 180 120H200C211.046 120 220 128.954 220 140C220 151.046 211.046 160 200 160C211.046 160 220 168.954 220 180C220 191.046 211.046 200 200 200C211.046 200 220 208.954 220 220C220 231.046 211.046 240 200 240H240C228.954 240 220 231.046 220 220C220 208.954 228.954 200 240 200C228.954 200 220 191.046 220 180C220 168.954 228.954 160 240 160C228.954 160 220 151.046 220 140C220 128.954 228.954 120 240 120C228.954 120 220 111.046 220 100C220 88.9543 228.954 80 240 80C228.954 80 220 71.0457 220 60C220 48.9543 228.954 40 240 40C228.954 40 220 31.0457 220 20C220 8.9543 228.954 0 240 0H220H200H180C191.046 0 200 8.9543 200 20C200 31.0457 191.046 40 180 40H200ZM210 37.3244C204.022 33.8663 200 27.4028 200 20C200 12.5972 204.022 6.13374 210 2.67564C215.978 6.13374 220 12.5972 220 20C220 27.4028 215.978 33.8663 210 37.3244ZM220 100C220 107.403 215.978 113.866 210 117.324C204.022 113.866 200 107.403 200 100C200 92.5972 204.022 86.1337 210 82.6756C215.978 86.1337 220 92.5972 220 100ZM80 80C91.0457 80 100 88.9543 100 100C100 111.046 91.0457 120 80 120H120C108.954 120 100 111.046 100 100C100 88.9543 108.954 80 120 80H80ZM80 0C91.0457 0 100 8.9543 100 20C100 31.0457 91.0457 40 80 40H120H160C148.954 40 140 31.0457 140 20C140 8.9543 148.954 0 160 0H120H80ZM120 0C131.046 0 140 8.9543 140 20C140 31.0457 131.046 40 120 40C108.954 40 100 31.0457 100 20C100 8.9543 108.954 0 120 0Z" fill="black"/>
</svg>
