<svg width="220" height="240" viewBox="0 0 220 240" fill="none" xmlns="http://www.w3.org/2000/svg">
<path fill-rule="evenodd" clip-rule="evenodd" d="M180 80C191.046 80 200 88.9543 200 100C200 88.9543 208.954 80 220 80L180 80Z" fill="black"/>
<path fill-rule="evenodd" clip-rule="evenodd" d="M220 160C208.954 160 200 151.046 200 140C200 151.046 191.046 160 180 160L220 160Z" fill="black"/>
<path fill-rule="evenodd" clip-rule="evenodd" d="M0 0C11.0457 0 20 8.9543 20 20C20 8.9543 28.9543 0 40 0H0Z" fill="black"/>
<path fill-rule="evenodd" clip-rule="evenodd" d="M40 40C28.9543 40 20 31.0457 20 20C20 31.0457 11.0457 40 0 40L40 40Z" fill="black"/>
<path fill-rule="evenodd" clip-rule="evenodd" d="M0 40C11.0457 40 20 48.9543 20 60C20 48.9543 28.9543 40 40 40H0Z" fill="black"/>
<path fill-rule="evenodd" clip-rule="evenodd" d="M40 80C28.9543 80 20 71.0457 20 60C20 71.0457 11.0457 80 0 80L40 80Z" fill="black"/>
<path fill-rule="evenodd" clip-rule="evenodd" d="M180 40C191.046 40 200 48.9543 200 60C200 48.9543 208.954 40 220 40H180Z" fill="black"/>
<path fill-rule="evenodd" clip-rule="evenodd" d="M220 80C208.954 80 200 71.0457 200 60C200 71.0457 191.046 80 180 80H220Z" fill="black"/>
<path fill-rule="evenodd" clip-rule="evenodd" d="M20 40C31.0457 40 40 48.9543 40 60C40 48.9543 48.9543 40 60 40H20Z" fill="black"/>
<path fill-rule="evenodd" clip-rule="evenodd" d="M60 80C48.9543 80 40 71.0457 40 60C40 71.0457 31.0457 80 20 80L60 80Z" fill="black"/>
<path fill-rule="evenodd" clip-rule="evenodd" d="M160 40C171.046 40 180 48.9543 180 60C180 48.9543 188.954 40 200 40H160Z" fill="black"/>
<path fill-rule="evenodd" clip-rule="evenodd" d="M200 80C188.954 80 180 71.0457 180 60C180 71.0457 171.046 80 160 80H200Z" fill="black"/>
<path fill-rule="evenodd" clip-rule="evenodd" d="M170 100C181.046 100 190 108.954 190 120C190 108.954 198.954 100 210 100H170Z" fill="black"/>
<path fill-rule="evenodd" clip-rule="evenodd" d="M210 140C198.954 140 190 131.046 190 120C190 131.046 181.046 140 170 140H210Z" fill="black"/>
<path fill-rule="evenodd" clip-rule="evenodd" d="M0 80C11.0457 80 20 88.9543 20 100C20 88.9543 28.9543 80 40 80H0Z" fill="black"/>
<path fill-rule="evenodd" clip-rule="evenodd" d="M40 120C28.9543 120 20 111.046 20 100C20 111.046 11.0457 120 0 120H40Z" fill="black"/>
<path fill-rule="evenodd" clip-rule="evenodd" d="M0 120C11.0457 120 20 128.954 20 140C20 128.954 28.9543 120 40 120H0Z" fill="black"/>
<path fill-rule="evenodd" clip-rule="evenodd" d="M40 160C28.9543 160 20 151.046 20 140C20 151.046 11.0457 160 0 160H40Z" fill="black"/>
<path fill-rule="evenodd" clip-rule="evenodd" d="M0 160C11.0457 160 20 168.954 20 180C20 168.954 28.9543 160 40 160H0Z" fill="black"/>
<path fill-rule="evenodd" clip-rule="evenodd" d="M40 200C28.9543 200 20 191.046 20 180C20 191.046 11.0457 200 0 200H40Z" fill="black"/>
<path fill-rule="evenodd" clip-rule="evenodd" d="M180 160C191.046 160 200 168.954 200 180C200 168.954 208.954 160 220 160H180Z" fill="black"/>
<path fill-rule="evenodd" clip-rule="evenodd" d="M220 200C208.954 200 200 191.046 200 180C200 191.046 191.046 200 180 200H220Z" fill="black"/>
<path fill-rule="evenodd" clip-rule="evenodd" d="M160 160C171.046 160 180 168.954 180 180C180 168.954 188.954 160 200 160H160Z" fill="black"/>
<path fill-rule="evenodd" clip-rule="evenodd" d="M200 200C188.954 200 180 191.046 180 180C180 191.046 171.046 200 160 200H200Z" fill="black"/>
<path fill-rule="evenodd" clip-rule="evenodd" d="M20 160C31.0457 160 40 168.954 40 180C40 168.954 48.9543 160 60 160H20Z" fill="black"/>
<path fill-rule="evenodd" clip-rule="evenodd" d="M60 200C48.9543 200 40 191.046 40 180C40 191.046 31.0457 200 20 200H60Z" fill="black"/>
<path fill-rule="evenodd" clip-rule="evenodd" d="M0 200C11.0457 200 20 208.954 20 220C20 208.954 28.9543 200 40 200H0Z" fill="black"/>
<path fill-rule="evenodd" clip-rule="evenodd" d="M40 240C28.9543 240 20 231.046 20 220C20 231.046 11.0457 240 0 240H40Z" fill="black"/>
<path fill-rule="evenodd" clip-rule="evenodd" d="M40 0C51.0457 0 60 8.9543 60 20C60 8.9543 68.9543 0 80 0H40Z" fill="black"/>
<path fill-rule="evenodd" clip-rule="evenodd" d="M80 40C68.9543 40 60 31.0457 60 20C60 31.0457 51.0457 40 40 40L80 40Z" fill="black"/>
<path fill-rule="evenodd" clip-rule="evenodd" d="M40 100C51.0457 100 60 108.954 60 120C60 108.954 68.9543 100 80 100H40Z" fill="black"/>
<path fill-rule="evenodd" clip-rule="evenodd" d="M80 140C68.9543 140 60 131.046 60 120C60 131.046 51.0457 140 40 140H80Z" fill="black"/>
<path fill-rule="evenodd" clip-rule="evenodd" d="M40 200C51.0457 200 60 208.954 60 220C60 208.954 68.9543 200 80 200H40Z" fill="black"/>
<path fill-rule="evenodd" clip-rule="evenodd" d="M80 240C68.9543 240 60 231.046 60 220C60 231.046 51.0457 240 40 240H80Z" fill="black"/>
<path fill-rule="evenodd" clip-rule="evenodd" d="M80 0C91.0457 0 100 8.9543 100 20C100 8.9543 108.954 0 120 0H80Z" fill="black"/>
<path fill-rule="evenodd" clip-rule="evenodd" d="M120 40C108.954 40 100 31.0457 100 20C100 31.0457 91.0457 40 80 40L120 40Z" fill="black"/>
<path fill-rule="evenodd" clip-rule="evenodd" d="M60 100C71.0457 100 80 108.954 80 120C80 108.954 88.9543 100 100 100H60Z" fill="black"/>
<path fill-rule="evenodd" clip-rule="evenodd" d="M100 140C88.9543 140 80 131.046 80 120C80 131.046 71.0457 140 60 140H100Z" fill="black"/>
<path fill-rule="evenodd" clip-rule="evenodd" d="M80 200C91.0457 200 100 208.954 100 220C100 208.954 108.954 200 120 200H80Z" fill="black"/>
<path fill-rule="evenodd" clip-rule="evenodd" d="M120 240C108.954 240 100 231.046 100 220C100 231.046 91.0457 240 80 240H120Z" fill="black"/>
<path fill-rule="evenodd" clip-rule="evenodd" d="M120 0C131.046 0 140 8.9543 140 20C140 8.9543 148.954 0 160 0H120Z" fill="black"/>
<path fill-rule="evenodd" clip-rule="evenodd" d="M160 40C148.954 40 140 31.0457 140 20C140 31.0457 131.046 40 120 40L160 40Z" fill="black"/>
<path fill-rule="evenodd" clip-rule="evenodd" d="M120 100C131.046 100 140 108.954 140 120C140 108.954 148.954 100 160 100H120Z" fill="black"/>
<path fill-rule="evenodd" clip-rule="evenodd" d="M160 140C148.954 140 140 131.046 140 120C140 131.046 131.046 140 120 140H160Z" fill="black"/>
<path fill-rule="evenodd" clip-rule="evenodd" d="M120 200C131.046 200 140 208.954 140 220C140 208.954 148.954 200 160 200H120Z" fill="black"/>
<path fill-rule="evenodd" clip-rule="evenodd" d="M160 240C148.954 240 140 231.046 140 220C140 231.046 131.046 240 120 240H160Z" fill="black"/>
<path fill-rule="evenodd" clip-rule="evenodd" d="M160 0C171.046 0 180 8.9543 180 20C180 8.9543 188.954 0 200 0H160Z" fill="black"/>
<path fill-rule="evenodd" clip-rule="evenodd" d="M200 40C188.954 40 180 31.0457 180 20C180 31.0457 171.046 40 160 40L200 40Z" fill="black"/>
<path fill-rule="evenodd" clip-rule="evenodd" d="M160 100C171.046 100 180 108.954 180 120C180 108.954 188.954 100 200 100H160Z" fill="black"/>
<path fill-rule="evenodd" clip-rule="evenodd" d="M200 140C188.954 140 180 131.046 180 120C180 131.046 171.046 140 160 140H200Z" fill="black"/>
<path fill-rule="evenodd" clip-rule="evenodd" d="M160 200C171.046 200 180 208.954 180 220C180 208.954 188.954 200 200 200H160Z" fill="black"/>
<path fill-rule="evenodd" clip-rule="evenodd" d="M200 240C188.954 240 180 231.046 180 220C180 231.046 171.046 240 160 240H200Z" fill="black"/>
</svg>
