<svg width="240" height="240" viewBox="0 0 240 240" fill="none" xmlns="http://www.w3.org/2000/svg">
<path fill-rule="evenodd" clip-rule="evenodd" d="M0 40C11.0457 40 20 48.9543 20 60C20 48.9543 28.9543 40 40 40H0Z" fill="black"/>
<path fill-rule="evenodd" clip-rule="evenodd" d="M40 80C28.9543 80 20 71.0457 20 60C20 71.0457 11.0457 80 0 80H40Z" fill="black"/>
<path fill-rule="evenodd" clip-rule="evenodd" d="M0 80C11.0457 80 20 88.9543 20 100C20 88.9543 28.9543 80 40 80H0Z" fill="black"/>
<path fill-rule="evenodd" clip-rule="evenodd" d="M40 120C28.9543 120 20 111.046 20 100C20 111.046 11.0457 120 0 120H40Z" fill="black"/>
<path fill-rule="evenodd" clip-rule="evenodd" d="M0 120C11.0457 120 20 128.954 20 140C20 128.954 28.9543 120 40 120H0Z" fill="black"/>
<path fill-rule="evenodd" clip-rule="evenodd" d="M40 160C28.9543 160 20 151.046 20 140C20 151.046 11.0457 160 0 160H40Z" fill="black"/>
<path fill-rule="evenodd" clip-rule="evenodd" d="M25 100C36.0457 100 45 108.954 45 120C45 108.954 53.9543 100 65 100H25Z" fill="black"/>
<path fill-rule="evenodd" clip-rule="evenodd" d="M65 140C53.9543 140 45 131.046 45 120C45 131.046 36.0457 140 25 140H65Z" fill="black"/>
<path fill-rule="evenodd" clip-rule="evenodd" d="M80 100C91.0457 100 100 108.954 100 120C100 108.954 108.954 100 120 100H80Z" fill="black"/>
<path fill-rule="evenodd" clip-rule="evenodd" d="M120 140C108.954 140 100 131.046 100 120C100 131.046 91.0457 140 80 140H120Z" fill="black"/>
<path fill-rule="evenodd" clip-rule="evenodd" d="M120 100C131.046 100 140 108.954 140 120C140 108.954 148.954 100 160 100H120Z" fill="black"/>
<path fill-rule="evenodd" clip-rule="evenodd" d="M160 140C148.954 140 140 131.046 140 120C140 131.046 131.046 140 120 140H160Z" fill="black"/>
<path fill-rule="evenodd" clip-rule="evenodd" d="M140 100C151.046 100 160 108.954 160 120C160 108.954 168.954 100 180 100H140Z" fill="black"/>
<path fill-rule="evenodd" clip-rule="evenodd" d="M180 140C168.954 140 160 131.046 160 120C160 131.046 151.046 140 140 140H180Z" fill="black"/>
<path fill-rule="evenodd" clip-rule="evenodd" d="M0 160C11.0457 160 20 168.954 20 180C20 168.954 28.9543 160 40 160H0Z" fill="black"/>
<path fill-rule="evenodd" clip-rule="evenodd" d="M40 200C28.9543 200 20 191.046 20 180C20 191.046 11.0457 200 0 200H40Z" fill="black"/>
<path fill-rule="evenodd" clip-rule="evenodd" d="M0 200C11.0457 200 20 208.954 20 220C20 208.954 28.9543 200 40 200H0Z" fill="black"/>
<path fill-rule="evenodd" clip-rule="evenodd" d="M40 240C28.9543 240 20 231.046 20 220C20 231.046 11.0457 240 0 240H40Z" fill="black"/>
<path fill-rule="evenodd" clip-rule="evenodd" d="M0 0C11.0457 0 20 8.9543 20 20C20 8.9543 28.9543 0 40 0H0Z" fill="black"/>
<path fill-rule="evenodd" clip-rule="evenodd" d="M40 40C28.9543 40 20 31.0457 20 20C20 31.0457 11.0457 40 0 40L40 40Z" fill="black"/>
<path fill-rule="evenodd" clip-rule="evenodd" d="M10 0C21.0457 0 30 8.9543 30 20C30 8.9543 38.9543 0 50 0H10Z" fill="black"/>
<path fill-rule="evenodd" clip-rule="evenodd" d="M50 40C38.9543 40 30 31.0457 30 20C30 31.0457 21.0457 40 10 40L50 40Z" fill="black"/>
<path fill-rule="evenodd" clip-rule="evenodd" d="M25 200C36.0457 200 45 208.954 45 220C45 208.954 53.9543 200 65 200H25Z" fill="black"/>
<path fill-rule="evenodd" clip-rule="evenodd" d="M65 240C53.9543 240 45 231.046 45 220C45 231.046 36.0457 240 25 240H65Z" fill="black"/>
<path fill-rule="evenodd" clip-rule="evenodd" d="M45 0C56.0457 0 65 8.9543 65 20C65 8.9543 73.9543 0 85 0H45Z" fill="black"/>
<path fill-rule="evenodd" clip-rule="evenodd" d="M85 40C73.9543 40 65 31.0457 65 20C65 31.0457 56.0457 40 45 40L85 40Z" fill="black"/>
<path fill-rule="evenodd" clip-rule="evenodd" d="M120 0C131.046 0 140 8.9543 140 20C140 8.9543 148.954 0 160 0H120Z" fill="black"/>
<path fill-rule="evenodd" clip-rule="evenodd" d="M160 40C148.954 40 140 31.0457 140 20C140 31.0457 131.046 40 120 40L160 40Z" fill="black"/>
<path fill-rule="evenodd" clip-rule="evenodd" d="M188 200C199.046 200 208 208.954 208 220C208 208.954 216.954 200 228 200H188Z" fill="black"/>
<path fill-rule="evenodd" clip-rule="evenodd" d="M228 240C216.954 240 208 231.046 208 220C208 231.046 199.046 240 188 240H228Z" fill="black"/>
<path fill-rule="evenodd" clip-rule="evenodd" d="M180 0C191.046 0 200 8.9543 200 20C200 8.9543 208.954 0 220 0H180Z" fill="black"/>
<path fill-rule="evenodd" clip-rule="evenodd" d="M220 40C208.954 40 200 31.0457 200 20C200 31.0457 191.046 40 180 40L220 40Z" fill="black"/>
<path fill-rule="evenodd" clip-rule="evenodd" d="M200 0C211.046 0 220 8.9543 220 20C220 8.9543 228.954 0 240 0H200Z" fill="black"/>
<path fill-rule="evenodd" clip-rule="evenodd" d="M240 40C228.954 40 220 31.0457 220 20C220 31.0457 211.046 40 200 40L240 40Z" fill="black"/>
<path fill-rule="evenodd" clip-rule="evenodd" d="M200 200C211.046 200 220 208.954 220 220C220 208.954 228.954 200 240 200H200Z" fill="black"/>
<path fill-rule="evenodd" clip-rule="evenodd" d="M240 240C228.954 240 220 231.046 220 220C220 231.046 211.046 240 200 240H240Z" fill="black"/>
<path fill-rule="evenodd" clip-rule="evenodd" d="M170 200C181.046 200 190 208.954 190 220C190 208.954 198.954 200 210 200H170Z" fill="black"/>
<path fill-rule="evenodd" clip-rule="evenodd" d="M210 240C198.954 240 190 231.046 190 220C190 231.046 181.046 240 170 240H210Z" fill="black"/>
<path fill-rule="evenodd" clip-rule="evenodd" d="M120 200C131.046 200 140 208.954 140 220C140 208.954 148.954 200 160 200H120Z" fill="black"/>
<path fill-rule="evenodd" clip-rule="evenodd" d="M160 240C148.954 240 140 231.046 140 220C140 231.046 131.046 240 120 240H160Z" fill="black"/>
</svg>
