<svg width="240" height="240" viewBox="0 0 240 240" fill="none" xmlns="http://www.w3.org/2000/svg">
<path fill-rule="evenodd" clip-rule="evenodd" d="M40 80C51.0457 80 60 88.9543 60 100C60 88.9543 68.9543 80 80 80H40Z" fill="black"/>
<path fill-rule="evenodd" clip-rule="evenodd" d="M80 120C68.9543 120 60 111.046 60 100C60 111.046 51.0457 120 40 120H80Z" fill="black"/>
<path fill-rule="evenodd" clip-rule="evenodd" d="M100 80C111.046 80 120 88.9543 120 100C120 88.9543 128.954 80 140 80H100Z" fill="black"/>
<path fill-rule="evenodd" clip-rule="evenodd" d="M140 120C128.954 120 120 111.046 120 100C120 111.046 111.046 120 100 120H140Z" fill="black"/>
<path fill-rule="evenodd" clip-rule="evenodd" d="M120 80C131.046 80 140 88.9543 140 100C140 88.9543 148.954 80 160 80H120Z" fill="black"/>
<path fill-rule="evenodd" clip-rule="evenodd" d="M160 120C148.954 120 140 111.046 140 100C140 111.046 131.046 120 120 120H160Z" fill="black"/>
<path fill-rule="evenodd" clip-rule="evenodd" d="M0 40C11.0457 40 20 48.9543 20 60C20 48.9543 28.9543 40 40 40H0Z" fill="black"/>
<path fill-rule="evenodd" clip-rule="evenodd" d="M40 80C28.9543 80 20 71.0457 20 60C20 71.0457 11.0457 80 0 80L40 80Z" fill="black"/>
<path fill-rule="evenodd" clip-rule="evenodd" d="M0 80C11.0457 80 20 88.9543 20 100C20 88.9543 28.9543 80 40 80H0Z" fill="black"/>
<path fill-rule="evenodd" clip-rule="evenodd" d="M40 120C28.9543 120 20 111.046 20 100C20 111.046 11.0457 120 0 120H40Z" fill="black"/>
<path fill-rule="evenodd" clip-rule="evenodd" d="M0 120C11.0457 120 20 128.954 20 140C20 128.954 28.9543 120 40 120H0Z" fill="black"/>
<path fill-rule="evenodd" clip-rule="evenodd" d="M40 160C28.9543 160 20 151.046 20 140C20 151.046 11.0457 160 0 160H40Z" fill="black"/>
<path fill-rule="evenodd" clip-rule="evenodd" d="M0 160C11.0457 160 20 168.954 20 180C20 168.954 28.9543 160 40 160H0Z" fill="black"/>
<path fill-rule="evenodd" clip-rule="evenodd" d="M40 200C28.9543 200 20 191.046 20 180C20 191.046 11.0457 200 0 200H40Z" fill="black"/>
<path fill-rule="evenodd" clip-rule="evenodd" d="M0 200C11.0457 200 20 208.954 20 220C20 208.954 28.9543 200 40 200H0Z" fill="black"/>
<path fill-rule="evenodd" clip-rule="evenodd" d="M40 240C28.9543 240 20 231.046 20 220C20 231.046 11.0457 240 0 240H40Z" fill="black"/>
<path fill-rule="evenodd" clip-rule="evenodd" d="M0 0C11.0457 0 20 8.9543 20 20C20 8.9543 28.9543 0 40 0H0Z" fill="black"/>
<path fill-rule="evenodd" clip-rule="evenodd" d="M40 40C28.9543 40 20 31.0457 20 20C20 31.0457 11.0457 40 0 40L40 40Z" fill="black"/>
<path fill-rule="evenodd" clip-rule="evenodd" d="M15 0C26.0457 0 35 8.9543 35 20C35 8.9543 43.9543 0 55 0H15Z" fill="black"/>
<path fill-rule="evenodd" clip-rule="evenodd" d="M55 40C43.9543 40 35 31.0457 35 20C35 31.0457 26.0457 40 15 40L55 40Z" fill="black"/>
<path fill-rule="evenodd" clip-rule="evenodd" d="M55 0C66.0457 0 75 8.9543 75 20C75 8.9543 83.9543 0 95 0H55Z" fill="black"/>
<path fill-rule="evenodd" clip-rule="evenodd" d="M95 40C83.9543 40 75 31.0457 75 20C75 31.0457 66.0457 40 55 40L95 40Z" fill="black"/>
<path fill-rule="evenodd" clip-rule="evenodd" d="M130 0C141.046 0 150 8.9543 150 20C150 8.9543 158.954 0 170 0H130Z" fill="black"/>
<path fill-rule="evenodd" clip-rule="evenodd" d="M170 40C158.954 40 150 31.0457 150 20C150 31.0457 141.046 40 130 40L170 40Z" fill="black"/>
<path fill-rule="evenodd" clip-rule="evenodd" d="M185 0C196.046 0 205 8.9543 205 20C205 8.9543 213.954 0 225 0H185Z" fill="black"/>
<path fill-rule="evenodd" clip-rule="evenodd" d="M225 40C213.954 40 205 31.0457 205 20C205 31.0457 196.046 40 185 40L225 40Z" fill="black"/>
<path fill-rule="evenodd" clip-rule="evenodd" d="M200 0C211.046 0 220 8.9543 220 20C220 8.9543 228.954 0 240 0H200Z" fill="black"/>
<path fill-rule="evenodd" clip-rule="evenodd" d="M240 40C228.954 40 220 31.0457 220 20C220 31.0457 211.046 40 200 40L240 40Z" fill="black"/>
</svg>
