<svg width="240" height="240" viewBox="0 0 240 240" fill="none" xmlns="http://www.w3.org/2000/svg">
<path fill-rule="evenodd" clip-rule="evenodd" d="M0 40C11.0457 40 20 48.9543 20 60C20 48.9543 28.9543 40 40 40H0Z" fill="black"/>
<path fill-rule="evenodd" clip-rule="evenodd" d="M40 80C28.9543 80 20 71.0457 20 60C20 71.0457 11.0457 80 0 80H40Z" fill="black"/>
<path fill-rule="evenodd" clip-rule="evenodd" d="M0 80C11.0457 80 20 88.9543 20 100C20 88.9543 28.9543 80 40 80H0Z" fill="black"/>
<path fill-rule="evenodd" clip-rule="evenodd" d="M40 120C28.9543 120 20 111.046 20 100C20 111.046 11.0457 120 0 120H40Z" fill="black"/>
<path fill-rule="evenodd" clip-rule="evenodd" d="M0 160C11.0457 160 20 168.954 20 180C20 168.954 28.9543 160 40 160H0Z" fill="black"/>
<path fill-rule="evenodd" clip-rule="evenodd" d="M40 200C28.9543 200 20 191.046 20 180C20 191.046 11.0457 200 0 200H40Z" fill="black"/>
<path fill-rule="evenodd" clip-rule="evenodd" d="M0 200C11.0457 200 20 208.954 20 220C20 208.954 28.9543 200 40 200H0Z" fill="black"/>
<path fill-rule="evenodd" clip-rule="evenodd" d="M40 240C28.9543 240 20 231.046 20 220C20 231.046 11.0457 240 0 240H40Z" fill="black"/>
<path fill-rule="evenodd" clip-rule="evenodd" d="M0 0C11.0457 0 20 8.9543 20 20C20 8.9543 28.9543 0 40 0H0Z" fill="black"/>
<path fill-rule="evenodd" clip-rule="evenodd" d="M40 40C28.9543 40 20 31.0457 20 20C20 31.0457 11.0457 40 0 40L40 40Z" fill="black"/>
<path fill-rule="evenodd" clip-rule="evenodd" d="M25 0C36.0457 0 45 8.9543 45 20C45 8.9543 53.9543 0 65 0H25Z" fill="black"/>
<path fill-rule="evenodd" clip-rule="evenodd" d="M65 40C53.9543 40 45 31.0457 45 20C45 31.0457 36.0457 40 25 40L65 40Z" fill="black"/>
<path fill-rule="evenodd" clip-rule="evenodd" d="M20 200C31.0457 200 40 208.954 40 220C40 208.954 48.9543 200 60 200H20Z" fill="black"/>
<path fill-rule="evenodd" clip-rule="evenodd" d="M60 240C48.9543 240 40 231.046 40 220C40 231.046 31.0457 240 20 240H60Z" fill="black"/>
<path fill-rule="evenodd" clip-rule="evenodd" d="M80 0C91.0457 0 100 8.9543 100 20C100 8.9543 108.954 0 120 0H80Z" fill="black"/>
<path fill-rule="evenodd" clip-rule="evenodd" d="M120 40C108.954 40 100 31.0457 100 20C100 31.0457 91.0457 40 80 40L120 40Z" fill="black"/>
<path fill-rule="evenodd" clip-rule="evenodd" d="M80 200C91.0457 200 100 208.954 100 220C100 208.954 108.954 200 120 200H80Z" fill="black"/>
<path fill-rule="evenodd" clip-rule="evenodd" d="M120 240C108.954 240 100 231.046 100 220C100 231.046 91.0457 240 80 240H120Z" fill="black"/>
<path fill-rule="evenodd" clip-rule="evenodd" d="M120 0C131.046 0 140 8.9543 140 20C140 8.9543 148.954 0 160 0H120Z" fill="black"/>
<path fill-rule="evenodd" clip-rule="evenodd" d="M160 40C148.954 40 140 31.0457 140 20C140 31.0457 131.046 40 120 40L160 40Z" fill="black"/>
<path fill-rule="evenodd" clip-rule="evenodd" d="M120 200C131.046 200 140 208.954 140 220C140 208.954 148.954 200 160 200H120Z" fill="black"/>
<path fill-rule="evenodd" clip-rule="evenodd" d="M160 240C148.954 240 140 231.046 140 220C140 231.046 131.046 240 120 240H160Z" fill="black"/>
<path fill-rule="evenodd" clip-rule="evenodd" d="M180 200C191.046 200 200 208.954 200 220C200 208.954 208.954 200 220 200H180Z" fill="black"/>
<path fill-rule="evenodd" clip-rule="evenodd" d="M220 240C208.954 240 200 231.046 200 220C200 231.046 191.046 240 180 240H220Z" fill="black"/>
<path fill-rule="evenodd" clip-rule="evenodd" d="M180 0C191.046 0 200 8.9543 200 20C200 8.9543 208.954 0 220 0H180Z" fill="black"/>
<path fill-rule="evenodd" clip-rule="evenodd" d="M220 40C208.954 40 200 31.0457 200 20C200 31.0457 191.046 40 180 40L220 40Z" fill="black"/>
<path fill-rule="evenodd" clip-rule="evenodd" d="M190 200C201.046 200 210 208.954 210 220C210 208.954 218.954 200 230 200H190Z" fill="black"/>
<path fill-rule="evenodd" clip-rule="evenodd" d="M230 240C218.954 240 210 231.046 210 220C210 231.046 201.046 240 190 240H230Z" fill="black"/>
<path fill-rule="evenodd" clip-rule="evenodd" d="M200 0C211.046 0 220 8.9543 220 20C220 8.9543 228.954 0 240 0H200Z" fill="black"/>
<path fill-rule="evenodd" clip-rule="evenodd" d="M240 40C228.954 40 220 31.0457 220 20C220 31.0457 211.046 40 200 40L240 40Z" fill="black"/>
<path fill-rule="evenodd" clip-rule="evenodd" d="M200 160C211.046 160 220 168.954 220 180C220 168.954 228.954 160 240 160H200Z" fill="black"/>
<path fill-rule="evenodd" clip-rule="evenodd" d="M240 200C228.954 200 220 191.046 220 180C220 191.046 211.046 200 200 200H240Z" fill="black"/>
<path fill-rule="evenodd" clip-rule="evenodd" d="M200 120C211.046 120 220 128.954 220 140C220 128.954 228.954 120 240 120H200Z" fill="black"/>
<path fill-rule="evenodd" clip-rule="evenodd" d="M240 160C228.954 160 220 151.046 220 140C220 151.046 211.046 160 200 160H240Z" fill="black"/>
<path fill-rule="evenodd" clip-rule="evenodd" d="M170 120C181.046 120 190 128.954 190 140C190 128.954 198.954 120 210 120H170Z" fill="black"/>
<path fill-rule="evenodd" clip-rule="evenodd" d="M210 160C198.954 160 190 151.046 190 140C190 151.046 181.046 160 170 160H210Z" fill="black"/>
<path fill-rule="evenodd" clip-rule="evenodd" d="M100 120C111.046 120 120 128.954 120 140C120 128.954 128.954 120 140 120H100Z" fill="black"/>
<path fill-rule="evenodd" clip-rule="evenodd" d="M140 160C128.954 160 120 151.046 120 140C120 151.046 111.046 160 100 160H140Z" fill="black"/>
<path fill-rule="evenodd" clip-rule="evenodd" d="M200 200C211.046 200 220 208.954 220 220C220 208.954 228.954 200 240 200H200Z" fill="black"/>
<path fill-rule="evenodd" clip-rule="evenodd" d="M240 240C228.954 240 220 231.046 220 220C220 231.046 211.046 240 200 240H240Z" fill="black"/>
</svg>
