<svg width="240" height="240" viewBox="0 0 240 240" fill="none" xmlns="http://www.w3.org/2000/svg">
<path fill-rule="evenodd" clip-rule="evenodd" d="M0 40C11.0457 40 20 48.9543 20 60C20 48.9543 28.9543 40 40 40H0Z" fill="black"/>
<path fill-rule="evenodd" clip-rule="evenodd" d="M40 80C28.9543 80 20 71.0457 20 60C20 71.0457 11.0457 80 0 80H40Z" fill="black"/>
<path fill-rule="evenodd" clip-rule="evenodd" d="M200 40C211.046 40 220 48.9543 220 60C220 48.9543 228.954 40 240 40H200Z" fill="black"/>
<path fill-rule="evenodd" clip-rule="evenodd" d="M240 80C228.954 80 220 71.0457 220 60C220 71.0457 211.046 80 200 80H240Z" fill="black"/>
<path fill-rule="evenodd" clip-rule="evenodd" d="M0 80C11.0457 80 20 88.9543 20 100C20 88.9543 28.9543 80 40 80H0Z" fill="black"/>
<path fill-rule="evenodd" clip-rule="evenodd" d="M40 120C28.9543 120 20 111.046 20 100C20 111.046 11.0457 120 0 120H40Z" fill="black"/>
<path fill-rule="evenodd" clip-rule="evenodd" d="M200 80C211.046 80 220 88.9543 220 100C220 88.9543 228.954 80 240 80H200Z" fill="black"/>
<path fill-rule="evenodd" clip-rule="evenodd" d="M240 120C228.954 120 220 111.046 220 100C220 111.046 211.046 120 200 120H240Z" fill="black"/>
<path fill-rule="evenodd" clip-rule="evenodd" d="M0 120C11.0457 120 20 128.954 20 140C20 128.954 28.9543 120 40 120H0Z" fill="black"/>
<path fill-rule="evenodd" clip-rule="evenodd" d="M40 160C28.9543 160 20 151.046 20 140C20 151.046 11.0457 160 0 160H40Z" fill="black"/>
<path fill-rule="evenodd" clip-rule="evenodd" d="M200 120C211.046 120 220 128.954 220 140C220 128.954 228.954 120 240 120H200Z" fill="black"/>
<path fill-rule="evenodd" clip-rule="evenodd" d="M240 160C228.954 160 220 151.046 220 140C220 151.046 211.046 160 200 160H240Z" fill="black"/>
<path fill-rule="evenodd" clip-rule="evenodd" d="M0 160C11.0457 160 20 168.954 20 180C20 168.954 28.9543 160 40 160H0Z" fill="black"/>
<path fill-rule="evenodd" clip-rule="evenodd" d="M40 200C28.9543 200 20 191.046 20 180C20 191.046 11.0457 200 0 200H40Z" fill="black"/>
<path fill-rule="evenodd" clip-rule="evenodd" d="M200 160C211.046 160 220 168.954 220 180C220 168.954 228.954 160 240 160H200Z" fill="black"/>
<path fill-rule="evenodd" clip-rule="evenodd" d="M240 200C228.954 200 220 191.046 220 180C220 191.046 211.046 200 200 200H240Z" fill="black"/>
<path fill-rule="evenodd" clip-rule="evenodd" d="M0 200C11.0457 200 20 208.954 20 220C20 208.954 28.9543 200 40 200H0Z" fill="black"/>
<path fill-rule="evenodd" clip-rule="evenodd" d="M40 240C28.9543 240 20 231.046 20 220C20 231.046 11.0457 240 0 240H40Z" fill="black"/>
<path fill-rule="evenodd" clip-rule="evenodd" d="M0 0C11.0457 0 20 8.9543 20 20C20 8.9543 28.9543 0 40 0H0Z" fill="black"/>
<path fill-rule="evenodd" clip-rule="evenodd" d="M40 40C28.9543 40 20 31.0457 20 20C20 31.0457 11.0457 40 0 40L40 40Z" fill="black"/>
<path fill-rule="evenodd" clip-rule="evenodd" d="M60 80C71.0457 80 80 88.9543 80 100C80 88.9543 88.9543 80 100 80H60Z" fill="black"/>
<path fill-rule="evenodd" clip-rule="evenodd" d="M100 120C88.9543 120 80 111.046 80 100C80 111.046 71.0457 120 60 120H100Z" fill="black"/>
<path fill-rule="evenodd" clip-rule="evenodd" d="M110 80C121.046 80 130 88.9543 130 100C130 88.9543 138.954 80 150 80H110Z" fill="black"/>
<path fill-rule="evenodd" clip-rule="evenodd" d="M150 120C138.954 120 130 111.046 130 100C130 111.046 121.046 120 110 120H150Z" fill="black"/>
<path fill-rule="evenodd" clip-rule="evenodd" d="M125 80C136.046 80 145 88.9543 145 100C145 88.9543 153.954 80 165 80H125Z" fill="black"/>
<path fill-rule="evenodd" clip-rule="evenodd" d="M165 120C153.954 120 145 111.046 145 100C145 111.046 136.046 120 125 120H165Z" fill="black"/>
<path fill-rule="evenodd" clip-rule="evenodd" d="M200 0C211.046 0 220 8.9543 220 20C220 8.9543 228.954 0 240 0H200Z" fill="black"/>
<path fill-rule="evenodd" clip-rule="evenodd" d="M240 40C228.954 40 220 31.0457 220 20C220 31.0457 211.046 40 200 40L240 40Z" fill="black"/>
<path fill-rule="evenodd" clip-rule="evenodd" d="M200 200C211.046 200 220 208.954 220 220C220 208.954 228.954 200 240 200H200Z" fill="black"/>
<path fill-rule="evenodd" clip-rule="evenodd" d="M240 240C228.954 240 220 231.046 220 220C220 231.046 211.046 240 200 240H240Z" fill="black"/>
</svg>
