<svg width="240" height="240" viewBox="0 0 240 240" fill="none" xmlns="http://www.w3.org/2000/svg">
<path fill-rule="evenodd" clip-rule="evenodd" d="M0 40C11.0457 40 20 48.9543 20 60C20 48.9543 28.9543 40 40 40H0Z" fill="black"/>
<path fill-rule="evenodd" clip-rule="evenodd" d="M40 80C28.9543 80 20 71.0457 20 60C20 71.0457 11.0457 80 0 80H40Z" fill="black"/>
<path fill-rule="evenodd" clip-rule="evenodd" d="M0 80C11.0457 80 20 88.9543 20 100C20 88.9543 28.9543 80 40 80H0Z" fill="black"/>
<path fill-rule="evenodd" clip-rule="evenodd" d="M40 120C28.9543 120 20 111.046 20 100C20 111.046 11.0457 120 0 120L40 120Z" fill="black"/>
<path fill-rule="evenodd" clip-rule="evenodd" d="M0 120C11.0457 120 20 128.954 20 140C20 128.954 28.9543 120 40 120H0Z" fill="black"/>
<path fill-rule="evenodd" clip-rule="evenodd" d="M40 160C28.9543 160 20 151.046 20 140C20 151.046 11.0457 160 0 160L40 160Z" fill="black"/>
<path fill-rule="evenodd" clip-rule="evenodd" d="M20 80C31.0457 80 40 88.9543 40 100C40 88.9543 48.9543 80 60 80H20Z" fill="black"/>
<path fill-rule="evenodd" clip-rule="evenodd" d="M60 120C48.9543 120 40 111.046 40 100C40 111.046 31.0457 120 20 120H60Z" fill="black"/>
<path fill-rule="evenodd" clip-rule="evenodd" d="M80 80C91.0457 80 100 88.9543 100 100C100 88.9543 108.954 80 120 80H80Z" fill="black"/>
<path fill-rule="evenodd" clip-rule="evenodd" d="M120 120C108.954 120 100 111.046 100 100C100 111.046 91.0457 120 80 120H120Z" fill="black"/>
<path fill-rule="evenodd" clip-rule="evenodd" d="M80 120C91.0457 120 100 128.954 100 140C100 128.954 108.954 120 120 120H80Z" fill="black"/>
<path fill-rule="evenodd" clip-rule="evenodd" d="M120 160C108.954 160 100 151.046 100 140C100 151.046 91.0457 160 80 160H120Z" fill="black"/>
<path fill-rule="evenodd" clip-rule="evenodd" d="M120 140C131.046 140 140 148.954 140 160C140 148.954 148.954 140 160 140H120Z" fill="black"/>
<path fill-rule="evenodd" clip-rule="evenodd" d="M160 180C148.954 180 140 171.046 140 160C140 171.046 131.046 180 120 180H160Z" fill="black"/>
<path fill-rule="evenodd" clip-rule="evenodd" d="M160 180C171.046 180 180 188.954 180 200C180 188.954 188.954 180 200 180H160Z" fill="black"/>
<path fill-rule="evenodd" clip-rule="evenodd" d="M200 220C188.954 220 180 211.046 180 200C180 211.046 171.046 220 160 220H200Z" fill="black"/>
<path fill-rule="evenodd" clip-rule="evenodd" d="M160 220C171.046 220 180 228.954 180 240C180 228.954 188.954 220 200 220H160Z" fill="black"/>
<path fill-rule="evenodd" clip-rule="evenodd" d="M200 220C211.046 220 220 228.954 220 240C220 228.954 228.954 220 240 220H200Z" fill="black"/>
<path fill-rule="evenodd" clip-rule="evenodd" d="M200 180C211.046 180 220 188.954 220 200C220 188.954 228.954 180 240 180H200Z" fill="black"/>
<path fill-rule="evenodd" clip-rule="evenodd" d="M240 220C228.954 220 220 211.046 220 200C220 211.046 211.046 220 200 220H240Z" fill="black"/>
<path fill-rule="evenodd" clip-rule="evenodd" d="M80 40C91.0457 40 100 48.9543 100 60C100 48.9543 108.954 40 120 40H80Z" fill="black"/>
<path fill-rule="evenodd" clip-rule="evenodd" d="M120 80C108.954 80 100 71.0457 100 60C100 71.0457 91.0457 80 80 80H120Z" fill="black"/>
<path fill-rule="evenodd" clip-rule="evenodd" d="M120 40C131.046 40 140 48.9543 140 60C140 48.9543 148.954 40 160 40H120Z" fill="black"/>
<path fill-rule="evenodd" clip-rule="evenodd" d="M160 80C148.954 80 140 71.0457 140 60C140 71.0457 131.046 80 120 80H160Z" fill="black"/>
<path fill-rule="evenodd" clip-rule="evenodd" d="M140 0C151.046 0 160 8.9543 160 20C160 8.9543 168.954 0 180 0H140Z" fill="black"/>
<path fill-rule="evenodd" clip-rule="evenodd" d="M180 40C168.954 40 160 31.0457 160 20C160 31.0457 151.046 40 140 40L180 40Z" fill="black"/>
<path fill-rule="evenodd" clip-rule="evenodd" d="M180 0C191.046 0 200 8.9543 200 20C200 8.9543 208.954 0 220 0H180Z" fill="black"/>
<path fill-rule="evenodd" clip-rule="evenodd" d="M220 40C208.954 40 200 31.0457 200 20C200 31.0457 191.046 40 180 40L220 40Z" fill="black"/>
<path fill-rule="evenodd" clip-rule="evenodd" d="M0 160C11.0457 160 20 168.954 20 180C20 168.954 28.9543 160 40 160H0Z" fill="black"/>
<path fill-rule="evenodd" clip-rule="evenodd" d="M40 200C28.9543 200 20 191.046 20 180C20 191.046 11.0457 200 0 200L40 200Z" fill="black"/>
<path fill-rule="evenodd" clip-rule="evenodd" d="M0 200C11.0457 200 20 208.954 20 220C20 208.954 28.9543 200 40 200H0Z" fill="black"/>
<path fill-rule="evenodd" clip-rule="evenodd" d="M40 240C28.9543 240 20 231.046 20 220C20 231.046 11.0457 240 0 240L40 240Z" fill="black"/>
<path fill-rule="evenodd" clip-rule="evenodd" d="M0 0C11.0457 0 20 8.9543 20 20C20 8.9543 28.9543 0 40 0H0Z" fill="black"/>
<path fill-rule="evenodd" clip-rule="evenodd" d="M40 40C28.9543 40 20 31.0457 20 20C20 31.0457 11.0457 40 0 40L40 40Z" fill="black"/>
<path fill-rule="evenodd" clip-rule="evenodd" d="M13 0C24.0457 0 33 8.9543 33 20C33 8.9543 41.9543 0 53 0H13Z" fill="black"/>
<path fill-rule="evenodd" clip-rule="evenodd" d="M53 40C41.9543 40 33 31.0457 33 20C33 31.0457 24.0457 40 13 40L53 40Z" fill="black"/>
<path fill-rule="evenodd" clip-rule="evenodd" d="M13 200C24.0457 200 33 208.954 33 220C33 208.954 41.9543 200 53 200H13Z" fill="black"/>
<path fill-rule="evenodd" clip-rule="evenodd" d="M53 240C41.9543 240 33 231.046 33 220C33 231.046 24.0457 240 13 240H53Z" fill="black"/>
</svg>
