<svg width="240" height="240" viewBox="0 0 240 240" fill="none" xmlns="http://www.w3.org/2000/svg">
<path fill-rule="evenodd" clip-rule="evenodd" d="M0 40C11.0457 40 20 48.9543 20 60C20 48.9543 28.9543 40 40 40H0Z" fill="black"/>
<path fill-rule="evenodd" clip-rule="evenodd" d="M40 80C28.9543 80 20 71.0457 20 60C20 71.0457 11.0457 80 0 80L40 80Z" fill="black"/>
<path fill-rule="evenodd" clip-rule="evenodd" d="M0 80C11.0457 80 20 88.9543 20 100C20 88.9543 28.9543 80 40 80H0Z" fill="black"/>
<path fill-rule="evenodd" clip-rule="evenodd" d="M40 120C28.9543 120 20 111.046 20 100C20 111.046 11.0457 120 0 120L40 120Z" fill="black"/>
<path fill-rule="evenodd" clip-rule="evenodd" d="M0 120C11.0457 120 20 128.954 20 140C20 128.954 28.9543 120 40 120H0Z" fill="black"/>
<path fill-rule="evenodd" clip-rule="evenodd" d="M40 160C28.9543 160 20 151.046 20 140C20 151.046 11.0457 160 0 160L40 160Z" fill="black"/>
<path fill-rule="evenodd" clip-rule="evenodd" d="M0 160C11.0457 160 20 168.954 20 180C20 168.954 28.9543 160 40 160H0Z" fill="black"/>
<path fill-rule="evenodd" clip-rule="evenodd" d="M40 200C28.9543 200 20 191.046 20 180C20 191.046 11.0457 200 0 200L40 200Z" fill="black"/>
<path fill-rule="evenodd" clip-rule="evenodd" d="M0 200C11.0457 200 20 208.954 20 220C20 208.954 28.9543 200 40 200H0Z" fill="black"/>
<path fill-rule="evenodd" clip-rule="evenodd" d="M40 240C28.9543 240 20 231.046 20 220C20 231.046 11.0457 240 0 240L40 240Z" fill="black"/>
<path fill-rule="evenodd" clip-rule="evenodd" d="M0 0C11.0457 0 20 8.9543 20 20C20 8.9543 28.9543 0 40 0H0Z" fill="black"/>
<path fill-rule="evenodd" clip-rule="evenodd" d="M40 40C28.9543 40 20 31.0457 20 20C20 31.0457 11.0457 40 0 40L40 40Z" fill="black"/>
<path fill-rule="evenodd" clip-rule="evenodd" d="M40 200C51.0457 200 60 208.954 60 220C60 208.954 68.9543 200 80 200H40Z" fill="black"/>
<path fill-rule="evenodd" clip-rule="evenodd" d="M80 240C68.9543 240 60 231.046 60 220C60 231.046 51.0457 240 40 240H80Z" fill="black"/>
<path fill-rule="evenodd" clip-rule="evenodd" d="M57 200C68.0457 200 77 208.954 77 220C77 208.954 85.9543 200 97 200H57Z" fill="black"/>
<path fill-rule="evenodd" clip-rule="evenodd" d="M97 240C85.9543 240 77 231.046 77 220C77 231.046 68.0457 240 57 240H97Z" fill="black"/>
<path fill-rule="evenodd" clip-rule="evenodd" d="M154 200C165.046 200 174 208.954 174 220C174 208.954 182.954 200 194 200H154Z" fill="black"/>
<path fill-rule="evenodd" clip-rule="evenodd" d="M194 240C182.954 240 174 231.046 174 220C174 231.046 165.046 240 154 240H194Z" fill="black"/>
<path fill-rule="evenodd" clip-rule="evenodd" d="M200 200C211.046 200 220 208.954 220 220C220 208.954 228.954 200 240 200H200Z" fill="black"/>
<path fill-rule="evenodd" clip-rule="evenodd" d="M240 240C228.954 240 220 231.046 220 220C220 231.046 211.046 240 200 240H240Z" fill="black"/>
</svg>
