<svg width="240" height="240" viewBox="0 0 240 240" fill="none" xmlns="http://www.w3.org/2000/svg">
<path fill-rule="evenodd" clip-rule="evenodd" d="M0 40C11.0457 40 20 48.9543 20 60C20 48.9543 28.9543 40 40 40H0Z" fill="black"/>
<path fill-rule="evenodd" clip-rule="evenodd" d="M40 80C28.9543 80 20 71.0457 20 60C20 71.0457 11.0457 80 0 80H40Z" fill="black"/>
<path fill-rule="evenodd" clip-rule="evenodd" d="M200 40C211.046 40 220 48.9543 220 60C220 48.9543 228.954 40 240 40H200Z" fill="black"/>
<path fill-rule="evenodd" clip-rule="evenodd" d="M240 80C228.954 80 220 71.0457 220 60C220 71.0457 211.046 80 200 80H240Z" fill="black"/>
<path fill-rule="evenodd" clip-rule="evenodd" d="M0 80C11.0457 80 20 88.9543 20 100C20 88.9543 28.9543 80 40 80H0Z" fill="black"/>
<path fill-rule="evenodd" clip-rule="evenodd" d="M40 120C28.9543 120 20 111.046 20 100C20 111.046 11.0457 120 0 120H40Z" fill="black"/>
<path fill-rule="evenodd" clip-rule="evenodd" d="M200 80C211.046 80 220 88.9543 220 100C220 88.9543 228.954 80 240 80H200Z" fill="black"/>
<path fill-rule="evenodd" clip-rule="evenodd" d="M240 120C228.954 120 220 111.046 220 100C220 111.046 211.046 120 200 120H240Z" fill="black"/>
<path fill-rule="evenodd" clip-rule="evenodd" d="M0 120C11.0457 120 20 128.954 20 140C20 128.954 28.9543 120 40 120H0Z" fill="black"/>
<path fill-rule="evenodd" clip-rule="evenodd" d="M40 160C28.9543 160 20 151.046 20 140C20 151.046 11.0457 160 0 160H40Z" fill="black"/>
<path fill-rule="evenodd" clip-rule="evenodd" d="M200 120C211.046 120 220 128.954 220 140C220 128.954 228.954 120 240 120H200Z" fill="black"/>
<path fill-rule="evenodd" clip-rule="evenodd" d="M240 160C228.954 160 220 151.046 220 140C220 151.046 211.046 160 200 160H240Z" fill="black"/>
<path fill-rule="evenodd" clip-rule="evenodd" d="M0 160C11.0457 160 20 168.954 20 180C20 168.954 28.9543 160 40 160H0Z" fill="black"/>
<path fill-rule="evenodd" clip-rule="evenodd" d="M40 200C28.9543 200 20 191.046 20 180C20 191.046 11.0457 200 0 200H40Z" fill="black"/>
<path fill-rule="evenodd" clip-rule="evenodd" d="M200 160C211.046 160 220 168.954 220 180C220 168.954 228.954 160 240 160H200Z" fill="black"/>
<path fill-rule="evenodd" clip-rule="evenodd" d="M240 200C228.954 200 220 191.046 220 180C220 191.046 211.046 200 200 200H240Z" fill="black"/>
<path fill-rule="evenodd" clip-rule="evenodd" d="M0 200C11.0457 200 20 208.954 20 220C20 208.954 28.9543 200 40 200H0Z" fill="black"/>
<path fill-rule="evenodd" clip-rule="evenodd" d="M40 240C28.9543 240 20 231.046 20 220C20 231.046 11.0457 240 0 240H40Z" fill="black"/>
<path fill-rule="evenodd" clip-rule="evenodd" d="M0 0C11.0457 0 20 8.9543 20 20C20 8.9543 28.9543 0 40 0H0Z" fill="black"/>
<path fill-rule="evenodd" clip-rule="evenodd" d="M40 40C28.9543 40 20 31.0457 20 20C20 31.0457 11.0457 40 0 40L40 40Z" fill="black"/>
<path fill-rule="evenodd" clip-rule="evenodd" d="M10 0C21.0457 0 30 8.9543 30 20C30 8.9543 38.9543 0 50 0H10Z" fill="black"/>
<path fill-rule="evenodd" clip-rule="evenodd" d="M50 40C38.9543 40 30 31.0457 30 20C30 31.0457 21.0457 40 10 40L50 40Z" fill="black"/>
<path fill-rule="evenodd" clip-rule="evenodd" d="M100 0C111.046 0 120 8.9543 120 20C120 8.9543 128.954 0 140 0H100Z" fill="black"/>
<path fill-rule="evenodd" clip-rule="evenodd" d="M140 40C128.954 40 120 31.0457 120 20C120 31.0457 111.046 40 100 40L140 40Z" fill="black"/>
<path fill-rule="evenodd" clip-rule="evenodd" d="M60 0C71.0457 0 80 8.9543 80 20C80 8.9543 88.9543 0 100 0H60Z" fill="black"/>
<path fill-rule="evenodd" clip-rule="evenodd" d="M100 40C88.9543 40 80 31.0457 80 20C80 31.0457 71.0457 40 60 40L100 40Z" fill="black"/>
<path fill-rule="evenodd" clip-rule="evenodd" d="M100 40C111.046 40 120 48.9543 120 60C120 48.9543 128.954 40 140 40H100Z" fill="black"/>
<path fill-rule="evenodd" clip-rule="evenodd" d="M140 80C128.954 80 120 71.0457 120 60C120 71.0457 111.046 80 100 80H140Z" fill="black"/>
<path fill-rule="evenodd" clip-rule="evenodd" d="M100 80C111.046 80 120 88.9543 120 100C120 88.9543 128.954 80 140 80H100Z" fill="black"/>
<path fill-rule="evenodd" clip-rule="evenodd" d="M140 120C128.954 120 120 111.046 120 100C120 111.046 111.046 120 100 120H140Z" fill="black"/>
<path fill-rule="evenodd" clip-rule="evenodd" d="M100 120C111.046 120 120 128.954 120 140C120 128.954 128.954 120 140 120H100Z" fill="black"/>
<path fill-rule="evenodd" clip-rule="evenodd" d="M140 160C128.954 160 120 151.046 120 140C120 151.046 111.046 160 100 160H140Z" fill="black"/>
<path fill-rule="evenodd" clip-rule="evenodd" d="M100 160C111.046 160 120 168.954 120 180C120 168.954 128.954 160 140 160H100Z" fill="black"/>
<path fill-rule="evenodd" clip-rule="evenodd" d="M140 200C128.954 200 120 191.046 120 180C120 191.046 111.046 200 100 200H140Z" fill="black"/>
<path fill-rule="evenodd" clip-rule="evenodd" d="M100 200C111.046 200 120 208.954 120 220C120 208.954 128.954 200 140 200H100Z" fill="black"/>
<path fill-rule="evenodd" clip-rule="evenodd" d="M140 240C128.954 240 120 231.046 120 220C120 231.046 111.046 240 100 240H140Z" fill="black"/>
<path fill-rule="evenodd" clip-rule="evenodd" d="M180 0C191.046 0 200 8.9543 200 20C200 8.9543 208.954 0 220 0H180Z" fill="black"/>
<path fill-rule="evenodd" clip-rule="evenodd" d="M220 40C208.954 40 200 31.0457 200 20C200 31.0457 191.046 40 180 40L220 40Z" fill="black"/>
<path fill-rule="evenodd" clip-rule="evenodd" d="M200 0C211.046 0 220 8.9543 220 20C220 8.9543 228.954 0 240 0H200Z" fill="black"/>
<path fill-rule="evenodd" clip-rule="evenodd" d="M240 40C228.954 40 220 31.0457 220 20C220 31.0457 211.046 40 200 40L240 40Z" fill="black"/>
<path fill-rule="evenodd" clip-rule="evenodd" d="M200 200C211.046 200 220 208.954 220 220C220 208.954 228.954 200 240 200H200Z" fill="black"/>
<path fill-rule="evenodd" clip-rule="evenodd" d="M240 240C228.954 240 220 231.046 220 220C220 231.046 211.046 240 200 240H240Z" fill="black"/>
</svg>
