<svg width="240" height="240" viewBox="0 0 240 240" fill="none" xmlns="http://www.w3.org/2000/svg">
<path fill-rule="evenodd" clip-rule="evenodd" d="M220 140C220 128.954 211.046 120 200 120C211.046 120 220 111.046 220 100C220 111.046 228.954 120 240 120C228.954 120 220 128.954 220 140Z" fill="black"/>
<path fill-rule="evenodd" clip-rule="evenodd" d="M0 40C11.0457 40 20 48.9543 20 60C20 48.9543 28.9543 40 40 40H0Z" fill="black"/>
<path fill-rule="evenodd" clip-rule="evenodd" d="M40 80C28.9543 80 20 71.0457 20 60C20 71.0457 11.0457 80 0 80H40Z" fill="black"/>
<path fill-rule="evenodd" clip-rule="evenodd" d="M200 40C211.046 40 220 48.9543 220 60C220 48.9543 228.954 40 240 40H200Z" fill="black"/>
<path fill-rule="evenodd" clip-rule="evenodd" d="M240 80C228.954 80 220 71.0457 220 60C220 71.0457 211.046 80 200 80H240Z" fill="black"/>
<path fill-rule="evenodd" clip-rule="evenodd" d="M200 80C211.046 80 220 88.9543 220 100C220 88.9543 228.954 80 240 80H200Z" fill="black"/>
<path fill-rule="evenodd" clip-rule="evenodd" d="M240 120C228.954 120 220 111.046 220 100C220 111.046 211.046 120 200 120H240Z" fill="black"/>
<path fill-rule="evenodd" clip-rule="evenodd" d="M0 80C11.0457 80 20 88.9543 20 100C20 88.9543 28.9543 80 40 80H0Z" fill="black"/>
<path fill-rule="evenodd" clip-rule="evenodd" d="M40 120C28.9543 120 20 111.046 20 100C20 111.046 11.0457 120 0 120H40Z" fill="black"/>
<path fill-rule="evenodd" clip-rule="evenodd" d="M0 120C11.0457 120 20 128.954 20 140C20 128.954 28.9543 120 40 120H0Z" fill="black"/>
<path fill-rule="evenodd" clip-rule="evenodd" d="M40 160C28.9543 160 20 151.046 20 140C20 151.046 11.0457 160 0 160H40Z" fill="black"/>
<path fill-rule="evenodd" clip-rule="evenodd" d="M0 160C11.0457 160 20 168.954 20 180C20 168.954 28.9543 160 40 160H0Z" fill="black"/>
<path fill-rule="evenodd" clip-rule="evenodd" d="M40 200C28.9543 200 20 191.046 20 180C20 191.046 11.0457 200 0 200H40Z" fill="black"/>
<path fill-rule="evenodd" clip-rule="evenodd" d="M0 200C11.0457 200 20 208.954 20 220C20 208.954 28.9543 200 40 200H0Z" fill="black"/>
<path fill-rule="evenodd" clip-rule="evenodd" d="M40 240C28.9543 240 20 231.046 20 220C20 231.046 11.0457 240 0 240H40Z" fill="black"/>
<path fill-rule="evenodd" clip-rule="evenodd" d="M0 0C11.0457 0 20 8.9543 20 20C20 8.9543 28.9543 0 40 0H0Z" fill="black"/>
<path fill-rule="evenodd" clip-rule="evenodd" d="M40 40C28.9543 40 20 31.0457 20 20C20 31.0457 11.0457 40 0 40L40 40Z" fill="black"/>
<path fill-rule="evenodd" clip-rule="evenodd" d="M10 0C21.0457 0 30 8.9543 30 20C30 8.9543 38.9543 0 50 0H10Z" fill="black"/>
<path fill-rule="evenodd" clip-rule="evenodd" d="M50 40C38.9543 40 30 31.0457 30 20C30 31.0457 21.0457 40 10 40L50 40Z" fill="black"/>
<path fill-rule="evenodd" clip-rule="evenodd" d="M80 0C91.0457 0 100 8.9543 100 20C100 8.9543 108.954 0 120 0H80Z" fill="black"/>
<path fill-rule="evenodd" clip-rule="evenodd" d="M120 40C108.954 40 100 31.0457 100 20C100 31.0457 91.0457 40 80 40L120 40Z" fill="black"/>
<path fill-rule="evenodd" clip-rule="evenodd" d="M60 100C71.0457 100 80 108.954 80 120C80 108.954 88.9543 100 100 100H60Z" fill="black"/>
<path fill-rule="evenodd" clip-rule="evenodd" d="M100 140C88.9543 140 80 131.046 80 120C80 131.046 71.0457 140 60 140H100Z" fill="black"/>
<path fill-rule="evenodd" clip-rule="evenodd" d="M160 100C171.046 100 180 108.954 180 120C180 108.954 188.954 100 200 100H160Z" fill="black"/>
<path fill-rule="evenodd" clip-rule="evenodd" d="M200 140C188.954 140 180 131.046 180 120C180 131.046 171.046 140 160 140H200Z" fill="black"/>
<path fill-rule="evenodd" clip-rule="evenodd" d="M110 100C121.046 100 130 108.954 130 120C130 108.954 138.954 100 150 100H110Z" fill="black"/>
<path fill-rule="evenodd" clip-rule="evenodd" d="M150 140C138.954 140 130 131.046 130 120C130 131.046 121.046 140 110 140H150Z" fill="black"/>
<path fill-rule="evenodd" clip-rule="evenodd" d="M180 100C191.046 100 200 108.954 200 120C200 108.954 208.954 100 220 100H180Z" fill="black"/>
<path fill-rule="evenodd" clip-rule="evenodd" d="M220 140C208.954 140 200 131.046 200 120C200 131.046 191.046 140 180 140H220Z" fill="black"/>
<path fill-rule="evenodd" clip-rule="evenodd" d="M40 100C51.0457 100 60 108.954 60 120C60 108.954 68.9543 100 80 100H40Z" fill="black"/>
<path fill-rule="evenodd" clip-rule="evenodd" d="M80 140C68.9543 140 60 131.046 60 120C60 131.046 51.0457 140 40 140H80Z" fill="black"/>
<path fill-rule="evenodd" clip-rule="evenodd" d="M120 0C131.046 0 140 8.9543 140 20C140 8.9543 148.954 0 160 0H120Z" fill="black"/>
<path fill-rule="evenodd" clip-rule="evenodd" d="M160 40C148.954 40 140 31.0457 140 20C140 31.0457 131.046 40 120 40L160 40Z" fill="black"/>
<path fill-rule="evenodd" clip-rule="evenodd" d="M170 0C181.046 0 190 8.9543 190 20C190 8.9543 198.954 0 210 0H170Z" fill="black"/>
<path fill-rule="evenodd" clip-rule="evenodd" d="M210 40C198.954 40 190 31.0457 190 20C190 31.0457 181.046 40 170 40L210 40Z" fill="black"/>
<path fill-rule="evenodd" clip-rule="evenodd" d="M200 0C211.046 0 220 8.9543 220 20C220 8.9543 228.954 0 240 0H200Z" fill="black"/>
<path fill-rule="evenodd" clip-rule="evenodd" d="M240 40C228.954 40 220 31.0457 220 20C220 31.0457 211.046 40 200 40L240 40Z" fill="black"/>
</svg>
