<svg width="240" height="240" viewBox="0 0 240 240" fill="none" xmlns="http://www.w3.org/2000/svg">
<path fill-rule="evenodd" clip-rule="evenodd" d="M120 140C120 128.954 111.046 120 100 120C111.046 120 120 111.046 120 100C120 111.046 128.954 120 140 120C128.954 120 120 128.954 120 140Z" fill="black"/>
<path fill-rule="evenodd" clip-rule="evenodd" d="M160 170C160 158.954 151.046 150 140 150C151.046 150 160 141.046 160 130C160 141.046 168.954 150 180 150C168.954 150 160 158.954 160 170Z" fill="black"/>
<path fill-rule="evenodd" clip-rule="evenodd" d="M0 40C11.0457 40 20 48.9543 20 60C20 48.9543 28.9543 40 40 40H0Z" fill="black"/>
<path fill-rule="evenodd" clip-rule="evenodd" d="M40 80C28.9543 80 20 71.0457 20 60C20 71.0457 11.0457 80 0 80L40 80Z" fill="black"/>
<path fill-rule="evenodd" clip-rule="evenodd" d="M0 80C11.0457 80 20 88.9543 20 100C20 88.9543 28.9543 80 40 80H0Z" fill="black"/>
<path fill-rule="evenodd" clip-rule="evenodd" d="M40 120C28.9543 120 20 111.046 20 100C20 111.046 11.0457 120 0 120L40 120Z" fill="black"/>
<path fill-rule="evenodd" clip-rule="evenodd" d="M0 120C11.0457 120 20 128.954 20 140C20 128.954 28.9543 120 40 120H0Z" fill="black"/>
<path fill-rule="evenodd" clip-rule="evenodd" d="M40 160C28.9543 160 20 151.046 20 140C20 151.046 11.0457 160 0 160L40 160Z" fill="black"/>
<path fill-rule="evenodd" clip-rule="evenodd" d="M0 160C11.0457 160 20 168.954 20 180C20 168.954 28.9543 160 40 160H0Z" fill="black"/>
<path fill-rule="evenodd" clip-rule="evenodd" d="M40 200C28.9543 200 20 191.046 20 180C20 191.046 11.0457 200 0 200L40 200Z" fill="black"/>
<path fill-rule="evenodd" clip-rule="evenodd" d="M0 200C11.0457 200 20 208.954 20 220C20 208.954 28.9543 200 40 200H0Z" fill="black"/>
<path fill-rule="evenodd" clip-rule="evenodd" d="M40 240C28.9543 240 20 231.046 20 220C20 231.046 11.0457 240 0 240L40 240Z" fill="black"/>
<path fill-rule="evenodd" clip-rule="evenodd" d="M0 0C11.0457 0 20 8.9543 20 20C20 8.9543 28.9543 0 40 0H0Z" fill="black"/>
<path fill-rule="evenodd" clip-rule="evenodd" d="M40 40C28.9543 40 20 31.0457 20 20C20 31.0457 11.0457 40 0 40L40 40Z" fill="black"/>
<path fill-rule="evenodd" clip-rule="evenodd" d="M25 0C36.0457 0 45 8.9543 45 20C45 8.9543 53.9543 0 65 0H25Z" fill="black"/>
<path fill-rule="evenodd" clip-rule="evenodd" d="M65 40C53.9543 40 45 31.0457 45 20C45 31.0457 36.0457 40 25 40L65 40Z" fill="black"/>
<path fill-rule="evenodd" clip-rule="evenodd" d="M40 200C51.0457 200 60 208.954 60 220C60 208.954 68.9543 200 80 200H40Z" fill="black"/>
<path fill-rule="evenodd" clip-rule="evenodd" d="M80 240C68.9543 240 60 231.046 60 220C60 231.046 51.0457 240 40 240H80Z" fill="black"/>
<path fill-rule="evenodd" clip-rule="evenodd" d="M80 0C91.0457 0 100 8.9543 100 20C100 8.9543 108.954 0 120 0H80Z" fill="black"/>
<path fill-rule="evenodd" clip-rule="evenodd" d="M120 40C108.954 40 100 31.0457 100 20C100 31.0457 91.0457 40 80 40L120 40Z" fill="black"/>
<path fill-rule="evenodd" clip-rule="evenodd" d="M120 0C131.046 0 140 8.9543 140 20C140 8.9543 148.954 0 160 0H120Z" fill="black"/>
<path fill-rule="evenodd" clip-rule="evenodd" d="M160 40C148.954 40 140 31.0457 140 20C140 31.0457 131.046 40 120 40L160 40Z" fill="black"/>
<path fill-rule="evenodd" clip-rule="evenodd" d="M160 200C171.046 200 180 208.954 180 220C180 208.954 188.954 200 200 200H160Z" fill="black"/>
<path fill-rule="evenodd" clip-rule="evenodd" d="M200 240C188.954 240 180 231.046 180 220C180 231.046 171.046 240 160 240H200Z" fill="black"/>
<path fill-rule="evenodd" clip-rule="evenodd" d="M80 200C91.0457 200 100 208.954 100 220C100 208.954 108.954 200 120 200H80Z" fill="black"/>
<path fill-rule="evenodd" clip-rule="evenodd" d="M120 240C108.954 240 100 231.046 100 220C100 231.046 91.0457 240 80 240H120Z" fill="black"/>
<path fill-rule="evenodd" clip-rule="evenodd" d="M180 0C191.046 0 200 8.9543 200 20C200 8.9543 208.954 0 220 0H180Z" fill="black"/>
<path fill-rule="evenodd" clip-rule="evenodd" d="M220 40C208.954 40 200 31.0457 200 20C200 31.0457 191.046 40 180 40L220 40Z" fill="black"/>
<path fill-rule="evenodd" clip-rule="evenodd" d="M174 200C185.046 200 194 208.954 194 220C194 208.954 202.954 200 214 200H174Z" fill="black"/>
<path fill-rule="evenodd" clip-rule="evenodd" d="M214 240C202.954 240 194 231.046 194 220C194 231.046 185.046 240 174 240H214Z" fill="black"/>
<path fill-rule="evenodd" clip-rule="evenodd" d="M200 0C211.046 0 220 8.9543 220 20C220 8.9543 228.954 0 240 0H200Z" fill="black"/>
<path fill-rule="evenodd" clip-rule="evenodd" d="M240 40C228.954 40 220 31.0457 220 20C220 31.0457 211.046 40 200 40L240 40Z" fill="black"/>
<path fill-rule="evenodd" clip-rule="evenodd" d="M200 40C211.046 40 220 48.9543 220 60C220 48.9543 228.954 40 240 40H200Z" fill="black"/>
<path fill-rule="evenodd" clip-rule="evenodd" d="M240 80C228.954 80 220 71.0457 220 60C220 71.0457 211.046 80 200 80H240Z" fill="black"/>
<path fill-rule="evenodd" clip-rule="evenodd" d="M200 80C211.046 80 220 88.9543 220 100C220 88.9543 228.954 80 240 80H200Z" fill="black"/>
<path fill-rule="evenodd" clip-rule="evenodd" d="M240 120C228.954 120 220 111.046 220 100C220 111.046 211.046 120 200 120H240Z" fill="black"/>
<path fill-rule="evenodd" clip-rule="evenodd" d="M200 120C211.046 120 220 128.954 220 140C220 128.954 228.954 120 240 120H200Z" fill="black"/>
<path fill-rule="evenodd" clip-rule="evenodd" d="M240 160C228.954 160 220 151.046 220 140C220 151.046 211.046 160 200 160H240Z" fill="black"/>
<path fill-rule="evenodd" clip-rule="evenodd" d="M200 160C211.046 160 220 168.954 220 180C220 168.954 228.954 160 240 160H200Z" fill="black"/>
<path fill-rule="evenodd" clip-rule="evenodd" d="M240 200C228.954 200 220 191.046 220 180C220 191.046 211.046 200 200 200H240Z" fill="black"/>
<path fill-rule="evenodd" clip-rule="evenodd" d="M200 200C211.046 200 220 208.954 220 220C220 208.954 228.954 200 240 200H200Z" fill="black"/>
<path fill-rule="evenodd" clip-rule="evenodd" d="M240 240C228.954 240 220 231.046 220 220C220 231.046 211.046 240 200 240H240Z" fill="black"/>
</svg>
