<svg width="240" height="240" viewBox="0 0 240 240" fill="none" xmlns="http://www.w3.org/2000/svg">
<path fill-rule="evenodd" clip-rule="evenodd" d="M0 40C11.0457 40 20 48.9543 20 60C20 48.9543 28.9543 40 40 40H0Z" fill="black"/>
<path fill-rule="evenodd" clip-rule="evenodd" d="M40 80C28.9543 80 20 71.0457 20 60C20 71.0457 11.0457 80 0 80H40Z" fill="black"/>
<path fill-rule="evenodd" clip-rule="evenodd" d="M200 40C211.046 40 220 48.9543 220 60C220 48.9543 228.954 40 240 40H200Z" fill="black"/>
<path fill-rule="evenodd" clip-rule="evenodd" d="M240 80C228.954 80 220 71.0457 220 60C220 71.0457 211.046 80 200 80H240Z" fill="black"/>
<path fill-rule="evenodd" clip-rule="evenodd" d="M0 80C11.0457 80 20 88.9543 20 100C20 88.9543 28.9543 80 40 80H0Z" fill="black"/>
<path fill-rule="evenodd" clip-rule="evenodd" d="M40 120C28.9543 120 20 111.046 20 100C20 111.046 11.0457 120 0 120H40Z" fill="black"/>
<path fill-rule="evenodd" clip-rule="evenodd" d="M0 120C11.0457 120 20 128.954 20 140C20 128.954 28.9543 120 40 120H0Z" fill="black"/>
<path fill-rule="evenodd" clip-rule="evenodd" d="M40 160C28.9543 160 20 151.046 20 140C20 151.046 11.0457 160 0 160H40Z" fill="black"/>
<path fill-rule="evenodd" clip-rule="evenodd" d="M0 160C11.0457 160 20 168.954 20 180C20 168.954 28.9543 160 40 160H0Z" fill="black"/>
<path fill-rule="evenodd" clip-rule="evenodd" d="M40 200C28.9543 200 20 191.046 20 180C20 191.046 11.0457 200 0 200H40Z" fill="black"/>
<path fill-rule="evenodd" clip-rule="evenodd" d="M0 200C11.0457 200 20 208.954 20 220C20 208.954 28.9543 200 40 200H0Z" fill="black"/>
<path fill-rule="evenodd" clip-rule="evenodd" d="M40 240C28.9543 240 20 231.046 20 220C20 231.046 11.0457 240 0 240H40Z" fill="black"/>
<path fill-rule="evenodd" clip-rule="evenodd" d="M0 0C11.0457 0 20 8.9543 20 20C20 8.9543 28.9543 0 40 0H0Z" fill="black"/>
<path fill-rule="evenodd" clip-rule="evenodd" d="M40 40C28.9543 40 20 31.0457 20 20C20 31.0457 11.0457 40 0 40L40 40Z" fill="black"/>
<path fill-rule="evenodd" clip-rule="evenodd" d="M13 0C24.0457 0 33 8.9543 33 20C33 8.9543 41.9543 0 53 0H13Z" fill="black"/>
<path fill-rule="evenodd" clip-rule="evenodd" d="M53 40C41.9543 40 33 31.0457 33 20C33 31.0457 24.0457 40 13 40L53 40Z" fill="black"/>
<path fill-rule="evenodd" clip-rule="evenodd" d="M80 0C91.0457 0 100 8.9543 100 20C100 8.9543 108.954 0 120 0H80Z" fill="black"/>
<path fill-rule="evenodd" clip-rule="evenodd" d="M120 40C108.954 40 100 31.0457 100 20C100 31.0457 91.0457 40 80 40L120 40Z" fill="black"/>
<path fill-rule="evenodd" clip-rule="evenodd" d="M147 0C158.046 0 167 8.9543 167 20C167 8.9543 175.954 0 187 0H147Z" fill="black"/>
<path fill-rule="evenodd" clip-rule="evenodd" d="M187 40C175.954 40 167 31.0457 167 20C167 31.0457 158.046 40 147 40L187 40Z" fill="black"/>
<path fill-rule="evenodd" clip-rule="evenodd" d="M193 0C204.046 0 213 8.9543 213 20C213 8.9543 221.954 0 233 0H193Z" fill="black"/>
<path fill-rule="evenodd" clip-rule="evenodd" d="M233 40C221.954 40 213 31.0457 213 20C213 31.0457 204.046 40 193 40L233 40Z" fill="black"/>
<path fill-rule="evenodd" clip-rule="evenodd" d="M200 0C211.046 0 220 8.9543 220 20C220 8.9543 228.954 0 240 0H200Z" fill="black"/>
<path fill-rule="evenodd" clip-rule="evenodd" d="M240 40C228.954 40 220 31.0457 220 20C220 31.0457 211.046 40 200 40L240 40Z" fill="black"/>
<path fill-rule="evenodd" clip-rule="evenodd" d="M200 80C211.046 80 220 88.9543 220 100C220 88.9543 228.954 80 240 80H200Z" fill="black"/>
<path fill-rule="evenodd" clip-rule="evenodd" d="M240 120C228.954 120 220 111.046 220 100C220 111.046 211.046 120 200 120H240Z" fill="black"/>
<path fill-rule="evenodd" clip-rule="evenodd" d="M180 80C191.046 80 200 88.9543 200 100C200 88.9543 208.954 80 220 80H180Z" fill="black"/>
<path fill-rule="evenodd" clip-rule="evenodd" d="M220 120C208.954 120 200 111.046 200 100C200 111.046 191.046 120 180 120H220Z" fill="black"/>
<path fill-rule="evenodd" clip-rule="evenodd" d="M20 80C31.0457 80 40 88.9543 40 100C40 88.9543 48.9543 80 60 80H20Z" fill="black"/>
<path fill-rule="evenodd" clip-rule="evenodd" d="M60 120C48.9543 120 40 111.046 40 100C40 111.046 31.0457 120 20 120H60Z" fill="black"/>
<path fill-rule="evenodd" clip-rule="evenodd" d="M60 80C71.0457 80 80 88.9543 80 100C80 88.9543 88.9543 80 100 80H60Z" fill="black"/>
<path fill-rule="evenodd" clip-rule="evenodd" d="M100 120C88.9543 120 80 111.046 80 100C80 111.046 71.0457 120 60 120H100Z" fill="black"/>
<path fill-rule="evenodd" clip-rule="evenodd" d="M130 80C141.046 80 150 88.9543 150 100C150 88.9543 158.954 80 170 80H130Z" fill="black"/>
<path fill-rule="evenodd" clip-rule="evenodd" d="M170 120C158.954 120 150 111.046 150 100C150 111.046 141.046 120 130 120H170Z" fill="black"/>
<path fill-rule="evenodd" clip-rule="evenodd" d="M40 120C51.0457 120 60 128.954 60 140C60 128.954 68.9543 120 80 120H40Z" fill="black"/>
<path fill-rule="evenodd" clip-rule="evenodd" d="M80 160C68.9543 160 60 151.046 60 140C60 151.046 51.0457 160 40 160H80Z" fill="black"/>
<path fill-rule="evenodd" clip-rule="evenodd" d="M60 120C71.0457 120 80 128.954 80 140C80 128.954 88.9543 120 100 120H60Z" fill="black"/>
<path fill-rule="evenodd" clip-rule="evenodd" d="M100 160C88.9543 160 80 151.046 80 140C80 151.046 71.0457 160 60 160H100Z" fill="black"/>
<path fill-rule="evenodd" clip-rule="evenodd" d="M80 160C91.0457 160 100 168.954 100 180C100 168.954 108.954 160 120 160H80Z" fill="black"/>
<path fill-rule="evenodd" clip-rule="evenodd" d="M120 200C108.954 200 100 191.046 100 180C100 191.046 91.0457 200 80 200H120Z" fill="black"/>
<path fill-rule="evenodd" clip-rule="evenodd" d="M120 160C131.046 160 140 168.954 140 180C140 168.954 148.954 160 160 160H120Z" fill="black"/>
<path fill-rule="evenodd" clip-rule="evenodd" d="M160 200C148.954 200 140 191.046 140 180C140 191.046 131.046 200 120 200H160Z" fill="black"/>
<path fill-rule="evenodd" clip-rule="evenodd" d="M120 200C131.046 200 140 208.954 140 220C140 208.954 148.954 200 160 200H120Z" fill="black"/>
<path fill-rule="evenodd" clip-rule="evenodd" d="M160 240C148.954 240 140 231.046 140 220C140 231.046 131.046 240 120 240H160Z" fill="black"/>
<path fill-rule="evenodd" clip-rule="evenodd" d="M160 200C171.046 200 180 208.954 180 220C180 208.954 188.954 200 200 200H160Z" fill="black"/>
<path fill-rule="evenodd" clip-rule="evenodd" d="M200 240C188.954 240 180 231.046 180 220C180 231.046 171.046 240 160 240H200Z" fill="black"/>
<path fill-rule="evenodd" clip-rule="evenodd" d="M180 200C191.046 200 200 208.954 200 220C200 208.954 208.954 200 220 200H180Z" fill="black"/>
<path fill-rule="evenodd" clip-rule="evenodd" d="M220 240C208.954 240 200 231.046 200 220C200 231.046 191.046 240 180 240H220Z" fill="black"/>
</svg>
