<svg width="240" height="240" viewBox="0 0 240 240" fill="none" xmlns="http://www.w3.org/2000/svg">
<path fill-rule="evenodd" clip-rule="evenodd" d="M100 40C111.046 40 120 48.9543 120 60C120 48.9543 128.954 40 140 40H100Z" fill="black"/>
<path fill-rule="evenodd" clip-rule="evenodd" d="M140 80C128.954 80 120 71.0457 120 60C120 71.0457 111.046 80 100 80H140Z" fill="black"/>
<path fill-rule="evenodd" clip-rule="evenodd" d="M0 0C11.0457 0 20 8.9543 20 20C20 8.9543 28.9543 0 40 0H0Z" fill="black"/>
<path fill-rule="evenodd" clip-rule="evenodd" d="M40 40C28.9543 40 20 31.0457 20 20C20 31.0457 11.0457 40 0 40L40 40Z" fill="black"/>
<path fill-rule="evenodd" clip-rule="evenodd" d="M18 0C29.0457 0 38 8.9543 38 20C38 8.9543 46.9543 0 58 0H18Z" fill="black"/>
<path fill-rule="evenodd" clip-rule="evenodd" d="M58 40C46.9543 40 38 31.0457 38 20C38 31.0457 29.0457 40 18 40L58 40Z" fill="black"/>
<path fill-rule="evenodd" clip-rule="evenodd" d="M58 0C69.0457 0 78 8.9543 78 20C78 8.9543 86.9543 0 98 0H58Z" fill="black"/>
<path fill-rule="evenodd" clip-rule="evenodd" d="M98 40C86.9543 40 78 31.0457 78 20C78 31.0457 69.0457 40 58 40L98 40Z" fill="black"/>
<path fill-rule="evenodd" clip-rule="evenodd" d="M192 0C203.046 0 212 8.9543 212 20C212 8.9543 220.954 0 232 0H192Z" fill="black"/>
<path fill-rule="evenodd" clip-rule="evenodd" d="M232 40C220.954 40 212 31.0457 212 20C212 31.0457 203.046 40 192 40L232 40Z" fill="black"/>
<path fill-rule="evenodd" clip-rule="evenodd" d="M100 80C111.046 80 120 88.9543 120 100C120 88.9543 128.954 80 140 80H100Z" fill="black"/>
<path fill-rule="evenodd" clip-rule="evenodd" d="M140 120C128.954 120 120 111.046 120 100C120 111.046 111.046 120 100 120H140Z" fill="black"/>
<path fill-rule="evenodd" clip-rule="evenodd" d="M100 120C111.046 120 120 128.954 120 140C120 128.954 128.954 120 140 120H100Z" fill="black"/>
<path fill-rule="evenodd" clip-rule="evenodd" d="M140 160C128.954 160 120 151.046 120 140C120 151.046 111.046 160 100 160H140Z" fill="black"/>
<path fill-rule="evenodd" clip-rule="evenodd" d="M100 160C111.046 160 120 168.954 120 180C120 168.954 128.954 160 140 160H100Z" fill="black"/>
<path fill-rule="evenodd" clip-rule="evenodd" d="M140 200C128.954 200 120 191.046 120 180C120 191.046 111.046 200 100 200H140Z" fill="black"/>
<path fill-rule="evenodd" clip-rule="evenodd" d="M100 200C111.046 200 120 208.954 120 220C120 208.954 128.954 200 140 200H100Z" fill="black"/>
<path fill-rule="evenodd" clip-rule="evenodd" d="M140 240C128.954 240 120 231.046 120 220C120 231.046 111.046 240 100 240H140Z" fill="black"/>
<path fill-rule="evenodd" clip-rule="evenodd" d="M162 0C173.046 0 182 8.9543 182 20C182 8.9543 190.954 0 202 0H162Z" fill="black"/>
<path fill-rule="evenodd" clip-rule="evenodd" d="M202 40C190.954 40 182 31.0457 182 20C182 31.0457 173.046 40 162 40L202 40Z" fill="black"/>
<path fill-rule="evenodd" clip-rule="evenodd" d="M200 0C211.046 0 220 8.9543 220 20C220 8.9543 228.954 0 240 0H200Z" fill="black"/>
<path fill-rule="evenodd" clip-rule="evenodd" d="M240 40C228.954 40 220 31.0457 220 20C220 31.0457 211.046 40 200 40L240 40Z" fill="black"/>
</svg>
