<svg width="242" height="240" viewBox="0 0 242 240" fill="none" xmlns="http://www.w3.org/2000/svg">
<path fill-rule="evenodd" clip-rule="evenodd" d="M202 200C213.046 200 222 208.954 222 220C222 208.954 230.954 200 242 200H202Z" fill="black"/>
<path fill-rule="evenodd" clip-rule="evenodd" d="M242 240C230.954 240 222 231.046 222 220C222 231.046 213.046 240 202 240L242 240Z" fill="black"/>
<path fill-rule="evenodd" clip-rule="evenodd" d="M202 40C213.046 40 222 48.9543 222 60C222 48.9543 230.954 40 242 40H202Z" fill="black"/>
<path fill-rule="evenodd" clip-rule="evenodd" d="M242 80C230.954 80 222 71.0457 222 60C222 71.0457 213.046 80 202 80L242 80Z" fill="black"/>
<path fill-rule="evenodd" clip-rule="evenodd" d="M202 80C213.046 80 222 88.9543 222 100C222 88.9543 230.954 80 242 80H202Z" fill="black"/>
<path fill-rule="evenodd" clip-rule="evenodd" d="M242 120C230.954 120 222 111.046 222 100C222 111.046 213.046 120 202 120L242 120Z" fill="black"/>
<path fill-rule="evenodd" clip-rule="evenodd" d="M202 120C213.046 120 222 128.954 222 140C222 128.954 230.954 120 242 120H202Z" fill="black"/>
<path fill-rule="evenodd" clip-rule="evenodd" d="M242 160C230.954 160 222 151.046 222 140C222 151.046 213.046 160 202 160L242 160Z" fill="black"/>
<path fill-rule="evenodd" clip-rule="evenodd" d="M202 160C213.046 160 222 168.954 222 180C222 168.954 230.954 160 242 160H202Z" fill="black"/>
<path fill-rule="evenodd" clip-rule="evenodd" d="M242 200C230.954 200 222 191.046 222 180C222 191.046 213.046 200 202 200L242 200Z" fill="black"/>
<path fill-rule="evenodd" clip-rule="evenodd" d="M202 0C213.046 0 222 8.9543 222 20C222 8.9543 230.954 0 242 0H202Z" fill="black"/>
<path fill-rule="evenodd" clip-rule="evenodd" d="M242 40C230.954 40 222 31.0457 222 20C222 31.0457 213.046 40 202 40L242 40Z" fill="black"/>
<path fill-rule="evenodd" clip-rule="evenodd" d="M0 200C11.0457 200 20 208.954 20 220C20 208.954 28.9543 200 40 200H0Z" fill="black"/>
<path fill-rule="evenodd" clip-rule="evenodd" d="M40 240C28.9543 240 20 231.046 20 220C20 231.046 11.0457 240 0 240H40Z" fill="black"/>
<path fill-rule="evenodd" clip-rule="evenodd" d="M40 200C51.0457 200 60 208.954 60 220C60 208.954 68.9543 200 80 200H40Z" fill="black"/>
<path fill-rule="evenodd" clip-rule="evenodd" d="M80 240C68.9543 240 60 231.046 60 220C60 231.046 51.0457 240 40 240H80Z" fill="black"/>
<path fill-rule="evenodd" clip-rule="evenodd" d="M53 200C64.0457 200 73 208.954 73 220C73 208.954 81.9543 200 93 200H53Z" fill="black"/>
<path fill-rule="evenodd" clip-rule="evenodd" d="M93 240C81.9543 240 73 231.046 73 220C73 231.046 64.0457 240 53 240H93Z" fill="black"/>
<path fill-rule="evenodd" clip-rule="evenodd" d="M120 200C131.046 200 140 208.954 140 220C140 208.954 148.954 200 160 200H120Z" fill="black"/>
<path fill-rule="evenodd" clip-rule="evenodd" d="M160 240C148.954 240 140 231.046 140 220C140 231.046 131.046 240 120 240H160Z" fill="black"/>
<path fill-rule="evenodd" clip-rule="evenodd" d="M173 200C184.046 200 193 208.954 193 220C193 208.954 201.954 200 213 200H173Z" fill="black"/>
<path fill-rule="evenodd" clip-rule="evenodd" d="M213 240C201.954 240 193 231.046 193 220C193 231.046 184.046 240 173 240L213 240Z" fill="black"/>
<path fill-rule="evenodd" clip-rule="evenodd" d="M0 40C11.0457 40 20 48.9543 20 60C20 48.9543 28.9543 40 40 40H0Z" fill="black"/>
<path fill-rule="evenodd" clip-rule="evenodd" d="M40 80C28.9543 80 20 71.0457 20 60C20 71.0457 11.0457 80 0 80H40Z" fill="black"/>
<path fill-rule="evenodd" clip-rule="evenodd" d="M0 80C11.0457 80 20 88.9543 20 100C20 88.9543 28.9543 80 40 80H0Z" fill="black"/>
<path fill-rule="evenodd" clip-rule="evenodd" d="M40 120C28.9543 120 20 111.046 20 100C20 111.046 11.0457 120 0 120H40Z" fill="black"/>
<path fill-rule="evenodd" clip-rule="evenodd" d="M0 120C11.0457 120 20 128.954 20 140C20 128.954 28.9543 120 40 120H0Z" fill="black"/>
<path fill-rule="evenodd" clip-rule="evenodd" d="M40 160C28.9543 160 20 151.046 20 140C20 151.046 11.0457 160 0 160H40Z" fill="black"/>
<path fill-rule="evenodd" clip-rule="evenodd" d="M0 160C11.0457 160 20 168.954 20 180C20 168.954 28.9543 160 40 160H0Z" fill="black"/>
<path fill-rule="evenodd" clip-rule="evenodd" d="M40 200C28.9543 200 20 191.046 20 180C20 191.046 11.0457 200 0 200H40Z" fill="black"/>
<path fill-rule="evenodd" clip-rule="evenodd" d="M0 0C11.0457 0 20 8.9543 20 20C20 8.9543 28.9543 0 40 0H0Z" fill="black"/>
<path fill-rule="evenodd" clip-rule="evenodd" d="M40 40C28.9543 40 20 31.0457 20 20C20 31.0457 11.0457 40 0 40L40 40Z" fill="black"/>
<path fill-rule="evenodd" clip-rule="evenodd" d="M100 120C111.046 120 120 128.954 120 140C120 128.954 128.954 120 140 120H100Z" fill="black"/>
<path fill-rule="evenodd" clip-rule="evenodd" d="M140 160C128.954 160 120 151.046 120 140C120 151.046 111.046 160 100 160H140Z" fill="black"/>
<path fill-rule="evenodd" clip-rule="evenodd" d="M120 100C120 88.9543 111.046 80 100 80C111.046 80 120 71.0457 120 60C120 71.0457 128.954 80 140 80C128.954 80 120 88.9543 120 100Z" fill="black"/>
<path fill-rule="evenodd" clip-rule="evenodd" d="M100 80C111.046 80 120 88.9543 120 100C120 88.9543 128.954 80 140 80H100Z" fill="black"/>
<path fill-rule="evenodd" clip-rule="evenodd" d="M140 120C128.954 120 120 111.046 120 100C120 111.046 111.046 120 100 120H140Z" fill="black"/>
<path fill-rule="evenodd" clip-rule="evenodd" d="M100 160C111.046 160 120 168.954 120 180C120 168.954 128.954 160 140 160H100Z" fill="black"/>
<path fill-rule="evenodd" clip-rule="evenodd" d="M140 200C128.954 200 120 191.046 120 180C120 191.046 111.046 200 100 200H140Z" fill="black"/>
</svg>
