<svg width="240" height="240" viewBox="0 0 240 240" fill="none" xmlns="http://www.w3.org/2000/svg">
<path fill-rule="evenodd" clip-rule="evenodd" d="M0 0C11.0457 0 20 8.9543 20 20C20 8.9543 28.9543 0 40 0H0Z" fill="black"/>
<path fill-rule="evenodd" clip-rule="evenodd" d="M40 40C28.9543 40 20 31.0457 20 20C20 31.0457 11.0457 40 0 40L40 40Z" fill="black"/>
<path fill-rule="evenodd" clip-rule="evenodd" d="M40 0C51.0457 0 60 8.9543 60 20C60 8.9543 68.9543 0 80 0H40Z" fill="black"/>
<path fill-rule="evenodd" clip-rule="evenodd" d="M80 40C68.9543 40 60 31.0457 60 20C60 31.0457 51.0457 40 40 40L80 40Z" fill="black"/>
<path fill-rule="evenodd" clip-rule="evenodd" d="M200 0C211.046 0 220 8.9543 220 20C220 8.9543 228.954 0 240 0H200Z" fill="black"/>
<path fill-rule="evenodd" clip-rule="evenodd" d="M240 40C228.954 40 220 31.0457 220 20C220 31.0457 211.046 40 200 40L240 40Z" fill="black"/>
<path fill-rule="evenodd" clip-rule="evenodd" d="M40 40C51.0457 40 60 48.9543 60 60C60 48.9543 68.9543 40 80 40H40Z" fill="black"/>
<path fill-rule="evenodd" clip-rule="evenodd" d="M80 80C68.9543 80 60 71.0457 60 60C60 71.0457 51.0457 80 40 80H80Z" fill="black"/>
<path fill-rule="evenodd" clip-rule="evenodd" d="M80 80C91.0457 80 100 88.9543 100 100C100 88.9543 108.954 80 120 80H80Z" fill="black"/>
<path fill-rule="evenodd" clip-rule="evenodd" d="M120 120C108.954 120 100 111.046 100 100C100 111.046 91.0457 120 80 120H120Z" fill="black"/>
<path fill-rule="evenodd" clip-rule="evenodd" d="M160 40C171.046 40 180 48.9543 180 60C180 48.9543 188.954 40 200 40H160Z" fill="black"/>
<path fill-rule="evenodd" clip-rule="evenodd" d="M200 80C188.954 80 180 71.0457 180 60C180 71.0457 171.046 80 160 80H200Z" fill="black"/>
<path fill-rule="evenodd" clip-rule="evenodd" d="M160 0C171.046 0 180 8.9543 180 20C180 8.9543 188.954 0 200 0H160Z" fill="black"/>
<path fill-rule="evenodd" clip-rule="evenodd" d="M200 40C188.954 40 180 31.0457 180 20C180 31.0457 171.046 40 160 40L200 40Z" fill="black"/>
<path fill-rule="evenodd" clip-rule="evenodd" d="M120 80C131.046 80 140 88.9543 140 100C140 88.9543 148.954 80 160 80H120Z" fill="black"/>
<path fill-rule="evenodd" clip-rule="evenodd" d="M160 120C148.954 120 140 111.046 140 100C140 111.046 131.046 120 120 120H160Z" fill="black"/>
<path fill-rule="evenodd" clip-rule="evenodd" d="M140 160C151.046 160 160 168.954 160 180C160 168.954 168.954 160 180 160H140Z" fill="black"/>
<path fill-rule="evenodd" clip-rule="evenodd" d="M180 200C168.954 200 160 191.046 160 180C160 191.046 151.046 200 140 200H180Z" fill="black"/>
<path fill-rule="evenodd" clip-rule="evenodd" d="M160 200C171.046 200 180 208.954 180 220C180 208.954 188.954 200 200 200H160Z" fill="black"/>
<path fill-rule="evenodd" clip-rule="evenodd" d="M200 240C188.954 240 180 231.046 180 220C180 231.046 171.046 240 160 240H200Z" fill="black"/>
<path fill-rule="evenodd" clip-rule="evenodd" d="M200 200C211.046 200 220 208.954 220 220C220 208.954 228.954 200 240 200H200Z" fill="black"/>
<path fill-rule="evenodd" clip-rule="evenodd" d="M240 240C228.954 240 220 231.046 220 220C220 231.046 211.046 240 200 240H240Z" fill="black"/>
<path fill-rule="evenodd" clip-rule="evenodd" d="M60 160C71.0457 160 80 168.954 80 180C80 168.954 88.9543 160 100 160H60Z" fill="black"/>
<path fill-rule="evenodd" clip-rule="evenodd" d="M100 200C88.9543 200 80 191.046 80 180C80 191.046 71.0457 200 60 200H100Z" fill="black"/>
<path fill-rule="evenodd" clip-rule="evenodd" d="M0 200C11.0457 200 20 208.954 20 220C20 208.954 28.9543 200 40 200H0Z" fill="black"/>
<path fill-rule="evenodd" clip-rule="evenodd" d="M40 240C28.9543 240 20 231.046 20 220C20 231.046 11.0457 240 0 240H40Z" fill="black"/>
<path fill-rule="evenodd" clip-rule="evenodd" d="M40 200C51.0457 200 60 208.954 60 220C60 208.954 68.9543 200 80 200H40Z" fill="black"/>
<path fill-rule="evenodd" clip-rule="evenodd" d="M80 240C68.9543 240 60 231.046 60 220C60 231.046 51.0457 240 40 240H80Z" fill="black"/>
<path fill-rule="evenodd" clip-rule="evenodd" d="M100 120C111.046 120 120 128.954 120 140C120 128.954 128.954 120 140 120H100Z" fill="black"/>
<path fill-rule="evenodd" clip-rule="evenodd" d="M140 160C128.954 160 120 151.046 120 140C120 151.046 111.046 160 100 160H140Z" fill="black"/>
</svg>
