<svg width="240" height="240" viewBox="0 0 240 240" fill="none" xmlns="http://www.w3.org/2000/svg">
<path fill-rule="evenodd" clip-rule="evenodd" d="M0 0C11.0457 0 20 8.9543 20 20C20 8.9543 28.9543 0 40 0H0Z" fill="black"/>
<path fill-rule="evenodd" clip-rule="evenodd" d="M40 40C28.9543 40 20 31.0457 20 20C20 31.0457 11.0457 40 0 40L40 40Z" fill="black"/>
<path fill-rule="evenodd" clip-rule="evenodd" d="M40 0C51.0457 0 60 8.9543 60 20C60 8.9543 68.9543 0 80 0H40Z" fill="black"/>
<path fill-rule="evenodd" clip-rule="evenodd" d="M80 40C68.9543 40 60 31.0457 60 20C60 31.0457 51.0457 40 40 40L80 40Z" fill="black"/>
<path fill-rule="evenodd" clip-rule="evenodd" d="M40 40C51.0457 40 60 48.9543 60 60C60 48.9543 68.9543 40 80 40H40Z" fill="black"/>
<path fill-rule="evenodd" clip-rule="evenodd" d="M80 80C68.9543 80 60 71.0457 60 60C60 71.0457 51.0457 80 40 80H80Z" fill="black"/>
<path fill-rule="evenodd" clip-rule="evenodd" d="M200 0C211.046 0 220 8.9543 220 20C220 8.9543 228.954 0 240 0H200Z" fill="black"/>
<path fill-rule="evenodd" clip-rule="evenodd" d="M240 40C228.954 40 220 31.0457 220 20C220 31.0457 211.046 40 200 40L240 40Z" fill="black"/>
<path fill-rule="evenodd" clip-rule="evenodd" d="M189 0C200.046 0 209 8.9543 209 20C209 8.9543 217.954 0 229 0H189Z" fill="black"/>
<path fill-rule="evenodd" clip-rule="evenodd" d="M229 40C217.954 40 209 31.0457 209 20C209 31.0457 200.046 40 189 40L229 40Z" fill="black"/>
<path fill-rule="evenodd" clip-rule="evenodd" d="M160 40C171.046 40 180 48.9543 180 60C180 48.9543 188.954 40 200 40H160Z" fill="black"/>
<path fill-rule="evenodd" clip-rule="evenodd" d="M200 80C188.954 80 180 71.0457 180 60C180 71.0457 171.046 80 160 80H200Z" fill="black"/>
<path fill-rule="evenodd" clip-rule="evenodd" d="M80 80C91.0457 80 100 88.9543 100 100C100 88.9543 108.954 80 120 80H80Z" fill="black"/>
<path fill-rule="evenodd" clip-rule="evenodd" d="M120 120C108.954 120 100 111.046 100 100C100 111.046 91.0457 120 80 120H120Z" fill="black"/>
<path fill-rule="evenodd" clip-rule="evenodd" d="M100 120C111.046 120 120 128.954 120 140C120 128.954 128.954 120 140 120H100Z" fill="black"/>
<path fill-rule="evenodd" clip-rule="evenodd" d="M140 160C128.954 160 120 151.046 120 140C120 151.046 111.046 160 100 160H140Z" fill="black"/>
<path fill-rule="evenodd" clip-rule="evenodd" d="M100 160C111.046 160 120 168.954 120 180C120 168.954 128.954 160 140 160H100Z" fill="black"/>
<path fill-rule="evenodd" clip-rule="evenodd" d="M140 200C128.954 200 120 191.046 120 180C120 191.046 111.046 200 100 200H140Z" fill="black"/>
<path fill-rule="evenodd" clip-rule="evenodd" d="M100 200C111.046 200 120 208.954 120 220C120 208.954 128.954 200 140 200H100Z" fill="black"/>
<path fill-rule="evenodd" clip-rule="evenodd" d="M140 240C128.954 240 120 231.046 120 220C120 231.046 111.046 240 100 240H140Z" fill="black"/>
<path fill-rule="evenodd" clip-rule="evenodd" d="M120 80C131.046 80 140 88.9543 140 100C140 88.9543 148.954 80 160 80H120Z" fill="black"/>
<path fill-rule="evenodd" clip-rule="evenodd" d="M160 120C148.954 120 140 111.046 140 100C140 111.046 131.046 120 120 120H160Z" fill="black"/>
<path fill-rule="evenodd" clip-rule="evenodd" d="M134 80C145.046 80 154 88.9543 154 100C154 88.9543 162.954 80 174 80H134Z" fill="black"/>
<path fill-rule="evenodd" clip-rule="evenodd" d="M174 120C162.954 120 154 111.046 154 100C154 111.046 145.046 120 134 120H174Z" fill="black"/>
<path fill-rule="evenodd" clip-rule="evenodd" d="M120 40C131.046 40 140 48.9543 140 60C140 48.9543 148.954 40 160 40H120Z" fill="black"/>
<path fill-rule="evenodd" clip-rule="evenodd" d="M160 80C148.954 80 140 71.0457 140 60C140 71.0457 131.046 80 120 80H160Z" fill="black"/>
</svg>
