<svg width="240" height="240" viewBox="0 0 240 240" fill="none" xmlns="http://www.w3.org/2000/svg">
<path fill-rule="evenodd" clip-rule="evenodd" d="M0 200C11.0457 200 20 208.954 20 220C20 208.954 28.9543 200 40 200H0Z" fill="black"/>
<path fill-rule="evenodd" clip-rule="evenodd" d="M40 240C28.9543 240 20 231.046 20 220C20 231.046 11.0457 240 0 240H40Z" fill="black"/>
<path fill-rule="evenodd" clip-rule="evenodd" d="M25 200C36.0457 200 45 208.954 45 220C45 208.954 53.9543 200 65 200H25Z" fill="black"/>
<path fill-rule="evenodd" clip-rule="evenodd" d="M65 240C53.9543 240 45 231.046 45 220C45 231.046 36.0457 240 25 240H65Z" fill="black"/>
<path fill-rule="evenodd" clip-rule="evenodd" d="M0 0C11.0457 0 20 8.9543 20 20C20 8.9543 28.9543 0 40 0H0Z" fill="black"/>
<path fill-rule="evenodd" clip-rule="evenodd" d="M40 40C28.9543 40 20 31.0457 20 20C20 31.0457 11.0457 40 0 40L40 40Z" fill="black"/>
<path fill-rule="evenodd" clip-rule="evenodd" d="M10 0C21.0457 0 30 8.9543 30 20C30 8.9543 38.9543 0 50 0H10Z" fill="black"/>
<path fill-rule="evenodd" clip-rule="evenodd" d="M50 40C38.9543 40 30 31.0457 30 20C30 31.0457 21.0457 40 10 40L50 40Z" fill="black"/>
<path fill-rule="evenodd" clip-rule="evenodd" d="M40 200C51.0457 200 60 208.954 60 220C60 208.954 68.9543 200 80 200H40Z" fill="black"/>
<path fill-rule="evenodd" clip-rule="evenodd" d="M80 240C68.9543 240 60 231.046 60 220C60 231.046 51.0457 240 40 240H80Z" fill="black"/>
<path fill-rule="evenodd" clip-rule="evenodd" d="M80 0C91.0457 0 100 8.9543 100 20C100 8.9543 108.954 0 120 0H80Z" fill="black"/>
<path fill-rule="evenodd" clip-rule="evenodd" d="M120 40C108.954 40 100 31.0457 100 20C100 31.0457 91.0457 40 80 40L120 40Z" fill="black"/>
<path fill-rule="evenodd" clip-rule="evenodd" d="M80 200C91.0457 200 100 208.954 100 220C100 208.954 108.954 200 120 200H80Z" fill="black"/>
<path fill-rule="evenodd" clip-rule="evenodd" d="M120 240C108.954 240 100 231.046 100 220C100 231.046 91.0457 240 80 240H120Z" fill="black"/>
<path fill-rule="evenodd" clip-rule="evenodd" d="M150 0C161.046 0 170 8.9543 170 20C170 8.9543 178.954 0 190 0H150Z" fill="black"/>
<path fill-rule="evenodd" clip-rule="evenodd" d="M190 40C178.954 40 170 31.0457 170 20C170 31.0457 161.046 40 150 40L190 40Z" fill="black"/>
<path fill-rule="evenodd" clip-rule="evenodd" d="M145 200C156.046 200 165 208.954 165 220C165 208.954 173.954 200 185 200H145Z" fill="black"/>
<path fill-rule="evenodd" clip-rule="evenodd" d="M185 240C173.954 240 165 231.046 165 220C165 231.046 156.046 240 145 240H185Z" fill="black"/>
<path fill-rule="evenodd" clip-rule="evenodd" d="M160 0C171.046 0 180 8.9543 180 20C180 8.9543 188.954 0 200 0H160Z" fill="black"/>
<path fill-rule="evenodd" clip-rule="evenodd" d="M200 40C188.954 40 180 31.0457 180 20C180 31.0457 171.046 40 160 40L200 40Z" fill="black"/>
<path fill-rule="evenodd" clip-rule="evenodd" d="M186 200C197.046 200 206 208.954 206 220C206 208.954 214.954 200 226 200H186Z" fill="black"/>
<path fill-rule="evenodd" clip-rule="evenodd" d="M226 240C214.954 240 206 231.046 206 220C206 231.046 197.046 240 186 240H226Z" fill="black"/>
<path fill-rule="evenodd" clip-rule="evenodd" d="M200 0C211.046 0 220 8.9543 220 20C220 8.9543 228.954 0 240 0H200Z" fill="black"/>
<path fill-rule="evenodd" clip-rule="evenodd" d="M240 40C228.954 40 220 31.0457 220 20C220 31.0457 211.046 40 200 40L240 40Z" fill="black"/>
<path fill-rule="evenodd" clip-rule="evenodd" d="M186 0C197.046 0 206 8.9543 206 20C206 8.9543 214.954 0 226 0H186Z" fill="black"/>
<path fill-rule="evenodd" clip-rule="evenodd" d="M226 40C214.954 40 206 31.0457 206 20C206 31.0457 197.046 40 186 40L226 40Z" fill="black"/>
<path fill-rule="evenodd" clip-rule="evenodd" d="M80 80C91.0457 80 100 88.9543 100 100C100 88.9543 108.954 80 120 80H80Z" fill="black"/>
<path fill-rule="evenodd" clip-rule="evenodd" d="M120 120C108.954 120 100 111.046 100 100C100 111.046 91.0457 120 80 120H120Z" fill="black"/>
<path fill-rule="evenodd" clip-rule="evenodd" d="M160 40C171.046 40 180 48.9543 180 60C180 48.9543 188.954 40 200 40H160Z" fill="black"/>
<path fill-rule="evenodd" clip-rule="evenodd" d="M200 80C188.954 80 180 71.0457 180 60C180 71.0457 171.046 80 160 80H200Z" fill="black"/>
<path fill-rule="evenodd" clip-rule="evenodd" d="M120 80C131.046 80 140 88.9543 140 100C140 88.9543 148.954 80 160 80H120Z" fill="black"/>
<path fill-rule="evenodd" clip-rule="evenodd" d="M160 120C148.954 120 140 111.046 140 100C140 111.046 131.046 120 120 120H160Z" fill="black"/>
<path fill-rule="evenodd" clip-rule="evenodd" d="M80 120C91.0457 120 100 128.954 100 140C100 128.954 108.954 120 120 120H80Z" fill="black"/>
<path fill-rule="evenodd" clip-rule="evenodd" d="M120 160C108.954 160 100 151.046 100 140C100 151.046 91.0457 160 80 160H120Z" fill="black"/>
<path fill-rule="evenodd" clip-rule="evenodd" d="M40 160C51.0457 160 60 168.954 60 180C60 168.954 68.9543 160 80 160H40Z" fill="black"/>
<path fill-rule="evenodd" clip-rule="evenodd" d="M80 200C68.9543 200 60 191.046 60 180C60 191.046 51.0457 200 40 200H80Z" fill="black"/>
<path fill-rule="evenodd" clip-rule="evenodd" d="M80 160C91.0457 160 100 168.954 100 180C100 168.954 108.954 160 120 160H80Z" fill="black"/>
<path fill-rule="evenodd" clip-rule="evenodd" d="M120 200C108.954 200 100 191.046 100 180C100 191.046 91.0457 200 80 200H120Z" fill="black"/>
<path fill-rule="evenodd" clip-rule="evenodd" d="M200 200C211.046 200 220 208.954 220 220C220 208.954 228.954 200 240 200H200Z" fill="black"/>
<path fill-rule="evenodd" clip-rule="evenodd" d="M240 240C228.954 240 220 231.046 220 220C220 231.046 211.046 240 200 240H240Z" fill="black"/>
</svg>
